  0
SECTION
  2
HEADER
  9
$ACADVER
  1
AC1015
  9
$ACADMAINTVER
 70
     6
  9
$DWGCODEPAGE
  3
ANSI_936
  9
$INSBASE
 10
0.0
 20
0.0
 30
0.0
  9
$EXTMIN
 10
0.0
 20
0.0
 30
0.0
  9
$EXTMAX
 10
420.0
 20
297.0
 30
0.0
  9
$LIMMIN
 10
0.0
 20
0.0
  9
$LIMMAX
 10
420.0
 20
297.0
  9
$ORTHOMODE
 70
     0
  9
$REGENMODE
 70
     1
  9
$FILLMODE
 70
     1
  9
$QTEXTMODE
 70
     0
  9
$MIRRTEXT
 70
     1
  9
$LTSCALE
 40
1.0
  9
$ATTMODE
 70
     1
  9
$TEXTSIZE
 40
3.5
  9
$TRACEWID
 40
1.0
  9
$TEXTSTYLE
  7
Standard
  9
$CLAYER
  8
0
  9
$CELTYPE
  6
ByLayer
  9
$CECOLOR
 62
   256
  9
$CELTSCALE
 40
1.0
  9
$DISPSILH
 70
     0
  9
$DIMSCALE
 40
1.0
  9
$DIMASZ
 40
4.08
  9
$DIMEXO
 40
0.0
  9
$DIMDLI
 40
3.75
  9
$DIMRND
 40
0.0
  9
$DIMDLE
 40
0.0
  9
$DIMEXE
 40
2.0
  9
$DIMTP
 40
0.0
  9
$DIMTM
 40
0.0
  9
$DIMTXT
 40
3.5
  9
$DIMCEN
 40
2.5
  9
$DIMTSZ
 40
0.0
  9
$DIMTOL
 70
     0
  9
$DIMLIM
 70
     0
  9
$DIMTIH
 70
     1
  9
$DIMTOH
 70
     1
  9
$DIMSE1
 70
     0
  9
$DIMSE2
 70
     0
  9
$DIMTAD
 70
     1
  9
$DIMZIN
 70
     0
  9
$DIMBLK
  1

  9
$DIMASO
 70
     1
  9
$DIMSHO
 70
     1
  9
$DIMPOST
  1

  9
$DIMAPOST
  1

  9
$DIMALT
 70
     0
  9
$DIMALTD
 70
     3
  9
$DIMALTF
 40
0.0393700787
  9
$DIMLFAC
 40
0.5
  9
$DIMTOFL
 70
     1
  9
$DIMTVP
 40
0.0
  9
$DIMTIX
 70
     0
  9
$DIMSOXD
 70
     0
  9
$DIMSAH
 70
     0
  9
$DIMBLK1
  1

  9
$DIMBLK2
  1

  9
$DIMSTYLE
  2
ISO-25
  9
$DIMCLRD
 70
     0
  9
$DIMCLRE
 70
     0
  9
$DIMCLRT
 70
     0
  9
$DIMTFAC
 40
1.0
  9
$DIMGAP
 40
1.524
  9
$DIMJUST
 70
     0
  9
$DIMSD1
 70
     0
  9
$DIMSD2
 70
     0
  9
$DIMTOLJ
 70
     0
  9
$DIMTZIN
 70
     0
  9
$DIMALTZ
 70
     0
  9
$DIMALTTZ
 70
     0
  9
$DIMUPT
 70
     0
  9
$DIMDEC
 70
     2
  9
$DIMTDEC
 70
     2
  9
$DIMALTU
 70
     2
  9
$DIMALTTD
 70
     3
  9
$DIMTXSTY
  7
Standard
  9
$DIMAUNIT
 70
     0
  9
$DIMADEC
 70
     2
  9
$DIMALTRND
 40
0.0
  9
$DIMAZIN
 70
     0
  9
$DIMDSEP
 70
    44
  9
$DIMATFIT
 70
     3
  9
$DIMFRAC
 70
     0
  9
$DIMLDRBLK
  1

  9
$DIMLUNIT
 70
     2
  9
$DIMLWD
 70
    -2
  9
$DIMLWE
 70
    -2
  9
$DIMTMOVE
 70
     0
  9
$LUNITS
 70
     2
  9
$LUPREC
 70
     2
  9
$SKETCHINC
 40
1.0
  9
$FILLETRAD
 40
10.0
  9
$AUNITS
 70
     0
  9
$AUPREC
 70
     2
  9
$MENU
  1
.
  9
$ELEVATION
 40
0.0
  9
$PELEVATION
 40
0.0
  9
$THICKNESS
 40
0.0
  9
$LIMCHECK
 70
     0
  9
$CHAMFERA
 40
0.0
  9
$CHAMFERB
 40
0.0
  9
$CHAMFERC
 40
0.0
  9
$CHAMFERD
 40
0.0
  9
$SKPOLY
 70
     0
  9
$TDCREATE
 40
2458348.585982083
  9
$TDUCREATE
 40
2458348.25264875
  9
$TDUPDATE
 40
2458348.585988287
  9
$TDUUPDATE
 40
2458348.252654954
  9
$TDINDWG
 40
0.0000000116
  9
$TDUSRTIMER
 40
0.0000000116
  9
$USRTIMER
 70
     1
  9
$ANGBASE
 50
0.0
  9
$ANGDIR
 70
     0
  9
$PDMODE
 70
     0
  9
$PDSIZE
 40
-1.0
  9
$PLINEWID
 40
0.0
  9
$SPLFRAME
 70
     0
  9
$SPLINETYPE
 70
     6
  9
$SPLINESEGS
 70
     8
  9
$HANDSEED
  5
224
  9
$SURFTAB1
 70
     6
  9
$SURFTAB2
 70
     6
  9
$SURFTYPE
 70
     6
  9
$SURFU
 70
     6
  9
$SURFV
 70
     6
  9
$UCSBASE
  2

  9
$UCSNAME
  2

  9
$UCSORG
 10
0.0
 20
0.0
 30
0.0
  9
$UCSXDIR
 10
1.0
 20
0.0
 30
0.0
  9
$UCSYDIR
 10
0.0
 20
1.0
 30
0.0
  9
$UCSORTHOREF
  2

  9
$UCSORTHOVIEW
 70
     0
  9
$UCSORGTOP
 10
0.0
 20
0.0
 30
0.0
  9
$UCSORGBOTTOM
 10
0.0
 20
0.0
 30
0.0
  9
$UCSORGLEFT
 10
0.0
 20
0.0
 30
0.0
  9
$UCSORGRIGHT
 10
0.0
 20
0.0
 30
0.0
  9
$UCSORGFRONT
 10
0.0
 20
0.0
 30
0.0
  9
$UCSORGBACK
 10
0.0
 20
0.0
 30
0.0
  9
$PUCSBASE
  2

  9
$PUCSNAME
  2

  9
$PUCSORG
 10
0.0
 20
0.0
 30
0.0
  9
$PUCSXDIR
 10
1.0
 20
0.0
 30
0.0
  9
$PUCSYDIR
 10
0.0
 20
1.0
 30
0.0
  9
$PUCSORTHOREF
  2

  9
$PUCSORTHOVIEW
 70
     0
  9
$PUCSORGTOP
 10
0.0
 20
0.0
 30
0.0
  9
$PUCSORGBOTTOM
 10
0.0
 20
0.0
 30
0.0
  9
$PUCSORGLEFT
 10
0.0
 20
0.0
 30
0.0
  9
$PUCSORGRIGHT
 10
0.0
 20
0.0
 30
0.0
  9
$PUCSORGFRONT
 10
0.0
 20
0.0
 30
0.0
  9
$PUCSORGBACK
 10
0.0
 20
0.0
 30
0.0
  9
$USERI1
 70
     0
  9
$USERI2
 70
     0
  9
$USERI3
 70
     0
  9
$USERI4
 70
     0
  9
$USERI5
 70
     0
  9
$USERR1
 40
0.0
  9
$USERR2
 40
0.0
  9
$USERR3
 40
0.0
  9
$USERR4
 40
0.0
  9
$USERR5
 40
0.0
  9
$WORLDVIEW
 70
     1
  9
$SHADEDGE
 70
     3
  9
$SHADEDIF
 70
    70
  9
$TILEMODE
 70
     1
  9
$MAXACTVP
 70
    64
  9
$PINSBASE
 10
0.0
 20
0.0
 30
0.0
  9
$PLIMCHECK
 70
     0
  9
$PEXTMIN
 10
1.0000000000E+20
 20
1.0000000000E+20
 30
1.0000000000E+20
  9
$PEXTMAX
 10
-1.0000000000E+20
 20
-1.0000000000E+20
 30
-1.0000000000E+20
  9
$PLIMMIN
 10
0.0
 20
0.0
  9
$PLIMMAX
 10
420.0
 20
297.0
  9
$UNITMODE
 70
     0
  9
$VISRETAIN
 70
     1
  9
$PLINEGEN
 70
     0
  9
$PSLTSCALE
 70
     1
  9
$TREEDEPTH
 70
  3020
  9
$CMLSTYLE
  2
Standard
  9
$CMLJUST
 70
     0
  9
$CMLSCALE
 40
20.0
  9
$PROXYGRAPHICS
 70
     1
  9
$MEASUREMENT
 70
     1
  9
$CELWEIGHT
370
    -1
  9
$ENDCAPS
280
     0
  9
$JOINSTYLE
280
     0
  9
$LWDISPLAY
290
     1
  9
$INSUNITS
 70
     4
  9
$HYPERLINKBASE
  1

  9
$STYLESHEET
  1

  9
$XEDIT
290
     1
  9
$CEPSNTYPE
380
     0
  9
$PSTYLEMODE
290
     1
  9
$FINGERPRINTGUID
  2
{BEF7303A-768B-45D8-98FA-3F921C21039C}
  9
$VERSIONGUID
  2
{FAEB1C32-E019-11D5-929B-00C0DF256EC4}
  9
$EXTNAMES
290
     1
  9
$PSVPSCALE
 40
0.0
  9
$OLESTARTUP
290
     0
  0
ENDSEC
  0
SECTION
  2
CLASSES
  0
CLASS
  1
ACDBDICTIONARYWDFLT
  2
AcDbDictionaryWithDefault
  3
ObjectDBX Classes
 90
        0
280
     0
281
     0
  0
CLASS
  1
VISUALSTYLE
  2
AcDbVisualStyle
  3
ObjectDBX Classes
 90
     4095
280
     0
281
     0
  0
CLASS
  1
MATERIAL
  2
AcDbMaterial
  3
ObjectDBX Classes
 90
     1153
280
     0
281
     0
  0
CLASS
  1
SCALE
  2
AcDbScale
  3
ObjectDBX Classes
 90
     1153
280
     0
281
     0
  0
CLASS
  1
TABLESTYLE
  2
AcDbTableStyle
  3
ObjectDBX Classes
 90
     4095
280
     0
281
     0
  0
CLASS
  1
MLEADERSTYLE
  2
AcDbMLeaderStyle
  3
ACDB_MLEADERSTYLE_CLASS
 90
     4095
280
     0
281
     0
  0
CLASS
  1
SUN
  2
AcDbSun
  3
SCENEOE
 90
     1153
280
     0
281
     0
  0
CLASS
  1
ACDBPLACEHOLDER
  2
AcDbPlaceHolder
  3
ObjectDBX Classes
 90
        0
280
     0
281
     0
  0
CLASS
  1
LAYOUT
  2
AcDbLayout
  3
ObjectDBX Classes
 90
        0
280
     0
281
     0
  0
ENDSEC
  0
SECTION
  2
TABLES
  0
TABLE
  2
VPORT
  5
8
330
0
100
AcDbSymbolTable
 70
     1
  0
VPORT
  5
29
330
8
100
AcDbSymbolTableRecord
100
AcDbViewportTableRecord
  2
*Active
 70
     0
 10
0.0
 20
0.0
 11
1.0
 21
1.0
 12
210.0
 22
148.5
 13
0.0
 23
0.0
 14
10.0
 24
10.0
 15
10.0
 25
10.0
 16
0.0
 26
0.0
 36
1.0
 17
0.0
 27
0.0
 37
0.0
 40
297.0
 41
1.4141414141
 42
50.0
 43
0.0
 44
0.0
 50
0.0
 51
0.0
 71
     0
 72
  2000
 73
     1
 74
     3
 75
     0
 76
     0
 77
     0
 78
     0
281
     0
 65
     1
110
0.0
120
0.0
130
0.0
111
1.0
121
0.0
131
0.0
112
0.0
122
1.0
132
0.0
 79
     0
146
0.0
  0
ENDTAB
  0
TABLE
  2
LTYPE
  5
5
330
0
100
AcDbSymbolTable
 70
     6
  0
LTYPE
  5
14
330
5
100
AcDbSymbolTableRecord
100
AcDbLinetypeTableRecord
  2
ByBlock
 70
     0
  3

 72
    65
 73
     0
 40
0.0
  0
LTYPE
  5
15
330
5
100
AcDbSymbolTableRecord
100
AcDbLinetypeTableRecord
  2
ByLayer
 70
     0
  3

 72
    65
 73
     0
 40
0.0
  0
LTYPE
  5
16
330
5
100
AcDbSymbolTableRecord
100
AcDbLinetypeTableRecord
  2
Continuous
 70
     0
  3
Solid line
 72
    65
 73
     0
 40
0.0
  0
LTYPE
  5
6E
330
5
100
AcDbSymbolTableRecord
100
AcDbLinetypeTableRecord
  2
HIDDEN
 70
     0
  3
Hidden __ __ __ __ __ __ __ __ __ __ __ __ __ __
 72
    65
 73
     2
 40
1.905
 49
1.27
 74
     0
 49
-0.635
 74
     0
  0
LTYPE
  5
6F
330
5
100
AcDbSymbolTableRecord
100
AcDbLinetypeTableRecord
  2
PHANTOM
 70
     0
  3
Phantom ______  __  __  ______  __  __  ______
 72
    65
 73
     6
 40
12.7
 49
6.35
 74
     0
 49
-1.27
 74
     0
 49
1.27
 74
     0
 49
-1.27
 74
     0
 49
1.27
 74
     0
 49
-1.27
 74
     0
  0
LTYPE
  5
70
330
5
100
AcDbSymbolTableRecord
100
AcDbLinetypeTableRecord
  2
CENTER
 70
     0
  3
Center ____ _ ____ _ ____ _ ____ _ ____ _ ____
 72
    65
 73
     4
 40
10.16
 49
6.35
 74
     0
 49
-1.27
 74
     0
 49
1.27
 74
     0
 49
-1.27
 74
     0
  0
LTYPE
  5
71
330
5
100
AcDbSymbolTableRecord
100
AcDbLinetypeTableRecord
  2
CENTERX2
 70
     0
  3
Center (2x) ________  __  ________  __  _____
 72
    65
 73
     4
 40
20.32
 49
12.7
 74
     0
 49
-2.54
 74
     0
 49
2.54
 74
     0
 49
-2.54
 74
     0
  0
LTYPE
  5
72
330
5
100
AcDbSymbolTableRecord
100
AcDbLinetypeTableRecord
  2
DOT2
 70
     0
  3
Dot (.5x) ........................................
 72
    65
 73
     2
 40
0.635
 49
0.0
 74
     0
 49
-0.635
 74
     0
  0
ENDTAB
  0
TABLE
  2
LAYER
  5
2
330
0
100
AcDbSymbolTable
 70
    14
  0
LAYER
  5
10
330
2
100
AcDbSymbolTableRecord
100
AcDbLayerTableRecord
  2
0
 70
     0
 62
     7
  6
Continuous
370
    -3
390
F
  0
LAYER
  5
73
330
2
100
AcDbSymbolTableRecord
100
AcDbLayerTableRecord
  2
SLD-0
 70
     0
 62
     7
  6
Continuous
370
    -3
390
F
  0
LAYER
  5
74
330
2
100
AcDbSymbolTableRecord
100
AcDbLayerTableRecord
  2
5
 70
     0
 62
     7
  6
Continuous
370
    -3
390
F
  0
LAYER
  5
75
330
2
100
AcDbSymbolTableRecord
100
AcDbLayerTableRecord
  2
9
 70
     0
 62
     7
  6
Continuous
370
    -3
390
F
  0
LAYER
  5
76
330
2
100
AcDbSymbolTableRecord
100
AcDbLayerTableRecord
  2
10
 70
     0
 62
     7
  6
Continuous
370
    -3
390
F
  0
LAYER
  5
77
330
2
100
AcDbSymbolTableRecord
100
AcDbLayerTableRecord
  2
轮廓实线层
 70
     0
 62
     7
  6
Continuous
370
    50
390
F
  0
LAYER
  5
78
330
2
100
AcDbSymbolTableRecord
100
AcDbLayerTableRecord
  2
细线层
 70
     0
 62
     4
  6
Continuous
370
    25
390
F
  0
LAYER
  5
79
330
2
100
AcDbSymbolTableRecord
100
AcDbLayerTableRecord
  2
中心线层
 70
     0
 62
     1
  6
CENTERX2
370
    25
390
F
  0
LAYER
  5
7A
330
2
100
AcDbSymbolTableRecord
100
AcDbLayerTableRecord
  2
虚线层
 70
     0
 62
     6
  6
HIDDEN
370
    25
390
F
  0
LAYER
  5
7B
330
2
100
AcDbSymbolTableRecord
100
AcDbLayerTableRecord
  2
剖面线层
 70
     0
 62
     2
  6
Continuous
370
    25
390
F
  0
LAYER
  5
7C
330
2
100
AcDbSymbolTableRecord
100
AcDbLayerTableRecord
  2
文字层
 70
     0
 62
     3
  6
Continuous
370
    25
390
F
  0
LAYER
  5
7D
330
2
100
AcDbSymbolTableRecord
100
AcDbLayerTableRecord
  2
标注层
 70
     0
 62
     4
  6
Continuous
370
    25
390
F
  0
LAYER
  5
7E
330
2
100
AcDbSymbolTableRecord
100
AcDbLayerTableRecord
  2
符号标注层
 70
     0
 62
    31
  6
Continuous
370
    25
390
F
  0
LAYER
  5
7F
330
2
100
AcDbSymbolTableRecord
100
AcDbLayerTableRecord
  2
双点划线层
 70
     0
 62
     6
  6
PHANTOM
370
    25
390
F
  0
ENDTAB
  0
TABLE
  2
STYLE
  5
3
330
0
100
AcDbSymbolTable
 70
     6
  0
STYLE
  5
11
330
3
100
AcDbSymbolTableRecord
100
AcDbTextStyleTableRecord
  2
Standard
 70
     0
 40
0.0
 41
1.0
 50
0.0
 71
     0
 42
3.5
  3
txt
  4

  0
STYLE
  5
CE
330
3
100
AcDbSymbolTableRecord
100
AcDbTextStyleTableRecord
  2
SLDTEXTSTYLE0
 70
     0
 40
0.0
 41
0.7
 50
0.0
 71
     0
 42
3.5
  3
TXT
  4
bigfont
  0
STYLE
  5
D7
330
3
100
AcDbSymbolTableRecord
100
AcDbTextStyleTableRecord
  2
SLDTEXTSTYLE1
 70
     0
 40
0.0
 41
0.62
 50
0.0
 71
     0
 42
3.5
  3
TXT
  4
bigfont
  0
STYLE
  5
DC
330
3
100
AcDbSymbolTableRecord
100
AcDbTextStyleTableRecord
  2
SLDTEXTSTYLE2
 70
     0
 40
0.0
 41
0.6142857143
 50
0.0
 71
     0
 42
3.5
  3
TXT
  4
bigfont
  0
STYLE
  5
DE
330
3
100
AcDbSymbolTableRecord
100
AcDbTextStyleTableRecord
  2
SLDTEXTSTYLE3
 70
     0
 40
0.0
 41
0.6
 50
0.0
 71
     0
 42
3.5
  3
TXT
  4
bigfont
  0
STYLE
  5
EF
330
3
100
AcDbSymbolTableRecord
100
AcDbTextStyleTableRecord
  2
SLDTEXTSTYLE4
 70
     0
 40
0.0
 41
0.7
 50
0.0
 71
     0
 42
3.5
  3
TXT
  4

  0
ENDTAB
  0
TABLE
  2
VIEW
  5
6
330
0
100
AcDbSymbolTable
 70
     0
  0
ENDTAB
  0
TABLE
  2
UCS
  5
7
330
0
100
AcDbSymbolTable
 70
     0
  0
ENDTAB
  0
TABLE
  2
APPID
  5
9
330
0
100
AcDbSymbolTable
 70
     1
  0
APPID
  5
12
330
9
100
AcDbSymbolTableRecord
100
AcDbRegAppTableRecord
  2
ACAD
 70
     0
  0
ENDTAB
  0
TABLE
  2
DIMSTYLE
  5
A
330
0
100
AcDbSymbolTable
 70
     5
100
AcDbDimStyleTable
  0
DIMSTYLE
105
27
330
A
100
AcDbSymbolTableRecord
100
AcDbDimStyleTableRecord
  2
ISO-25
 70
     0
 41
2.5
 42
0.625
 43
3.75
 44
1.25
 73
     0
 74
     0
 77
     1
 78
     8
140
2.5
141
2.5
143
0.0393700787
147
0.625
171
     3
172
     1
178
     0
271
     2
272
     2
274
     3
278
    44
283
     0
284
     8
340
11
  0
DIMSTYLE
105
124
102
{ACAD_REACTORS
330
123
330
155
330
180
102
}
330
A
100
AcDbSymbolTableRecord
100
AcDbDimStyleTableRecord
  2
SLDDIMSTYLE0
 70
     0
 41
4.08
 44
0.0
 45
0.000000001
 73
     0
 74
     0
 77
     2
 78
     4
 79
     1
140
3.5
144
0.5
147
0.875
173
     1
178
     0
271
     2
272
     2
276
     2
284
    12
340
EF
  0
DIMSTYLE
105
12F
102
{ACAD_REACTORS
330
12E
102
}
330
A
100
AcDbSymbolTableRecord
100
AcDbDimStyleTableRecord
  2
SLDDIMSTYLE1
 70
     0
 41
4.08
 44
0.0
 45
0.000000001
 73
     0
 74
     0
 77
     2
 78
    12
 79
     3
140
3.5
144
0.5
147
0.875
173
     1
178
     0
271
     2
272
     2
276
     2
284
    12
340
EF
  0
DIMSTYLE
105
160
102
{ACAD_REACTORS
330
15F
102
}
330
A
100
AcDbSymbolTableRecord
100
AcDbDimStyleTableRecord
  2
SLDDIMSTYLE2
 70
     0
 41
4.08
 44
0.0
 45
0.000000001
 73
     0
 74
     0
 77
     2
 78
     4
 79
     1
140
3.5
144
0.5
147
0.875
172
     1
173
     1
178
     0
271
     2
272
     2
276
     2
284
    12
289
     0
340
EF
  0
DIMSTYLE
105
18B
102
{ACAD_REACTORS
330
18A
330
197
102
}
330
A
100
AcDbSymbolTableRecord
100
AcDbDimStyleTableRecord
  2
SLDDIMSTYLE3
 70
     0
 41
4.08
 44
0.0
 45
0.000000001
 73
     0
 74
     0
 77
     2
 78
    12
 79
     3
140
3.5
141
0.0
144
0.5
147
0.875
172
     1
173
     1
178
     0
271
     2
272
     2
276
     2
284
    12
340
EF
341
18C
343
18C
  0
ENDTAB
  0
TABLE
  2
BLOCK_RECORD
  5
1
330
0
100
AcDbSymbolTable
 70
    20
  0
BLOCK_RECORD
  5
1F
330
1
100
AcDbSymbolTableRecord
100
AcDbBlockTableRecord
  2
*Model_Space
340
22
  0
BLOCK_RECORD
  5
1B
330
1
100
AcDbSymbolTableRecord
100
AcDbBlockTableRecord
  2
*Paper_Space
340
1E
  0
BLOCK_RECORD
  5
23
330
1
100
AcDbSymbolTableRecord
100
AcDbBlockTableRecord
  2
*Paper_Space0
340
26
  0
BLOCK_RECORD
  5
125
330
1
100
AcDbSymbolTableRecord
100
AcDbBlockTableRecord
  2
_D
340
0
  0
BLOCK_RECORD
  5
130
330
1
100
AcDbSymbolTableRecord
100
AcDbBlockTableRecord
  2
_D_1
340
0
  0
BLOCK_RECORD
  5
156
330
1
100
AcDbSymbolTableRecord
100
AcDbBlockTableRecord
  2
_D_2
340
0
  0
BLOCK_RECORD
  5
161
330
1
100
AcDbSymbolTableRecord
100
AcDbBlockTableRecord
  2
_D_3
340
0
  0
BLOCK_RECORD
  5
181
330
1
100
AcDbSymbolTableRecord
100
AcDbBlockTableRecord
  2
_D_4
340
0
  0
BLOCK_RECORD
  5
18C
330
1
100
AcDbSymbolTableRecord
100
AcDbBlockTableRecord
  2
_NONE
340
0
  0
BLOCK_RECORD
  5
18F
330
1
100
AcDbSymbolTableRecord
100
AcDbBlockTableRecord
  2
_D_5
340
0
  0
BLOCK_RECORD
  5
198
330
1
100
AcDbSymbolTableRecord
100
AcDbBlockTableRecord
  2
_D_6
340
0
  0
BLOCK_RECORD
  5
1A0
330
1
100
AcDbSymbolTableRecord
100
AcDbBlockTableRecord
  2
SW_CENTERMARKSYMBOL_0
340
0
102
{BLKREFS
331
1AB
102
}
  0
BLOCK_RECORD
  5
1AC
330
1
100
AcDbSymbolTableRecord
100
AcDbBlockTableRecord
  2
SW_CENTERMARKSYMBOL_1
340
0
102
{BLKREFS
331
1B7
102
}
  0
BLOCK_RECORD
  5
1B8
330
1
100
AcDbSymbolTableRecord
100
AcDbBlockTableRecord
  2
SW_CENTERMARKSYMBOL_2
340
0
102
{BLKREFS
331
1C3
102
}
  0
BLOCK_RECORD
  5
1C4
330
1
100
AcDbSymbolTableRecord
100
AcDbBlockTableRecord
  2
SW_CENTERMARKSYMBOL_3
340
0
102
{BLKREFS
331
1CF
102
}
  0
BLOCK_RECORD
  5
1D0
330
1
100
AcDbSymbolTableRecord
100
AcDbBlockTableRecord
  2
SW_CENTERMARKSYMBOL_4
340
0
102
{BLKREFS
331
1DB
102
}
  0
BLOCK_RECORD
  5
1DC
330
1
100
AcDbSymbolTableRecord
100
AcDbBlockTableRecord
  2
SW_CENTERMARKSYMBOL_5
340
0
102
{BLKREFS
331
1E7
102
}
  0
BLOCK_RECORD
  5
1E8
330
1
100
AcDbSymbolTableRecord
100
AcDbBlockTableRecord
  2
SW_CENTERMARKSYMBOL_6
340
0
102
{BLKREFS
331
1F3
102
}
  0
BLOCK_RECORD
  5
1F4
330
1
100
AcDbSymbolTableRecord
100
AcDbBlockTableRecord
  2
SW_CENTERMARKSYMBOL_7
340
0
102
{BLKREFS
331
1FF
102
}
  0
BLOCK_RECORD
  5
200
330
1
100
AcDbSymbolTableRecord
100
AcDbBlockTableRecord
  2
SW_CENTERMARKSYMBOL_8
340
0
102
{BLKREFS
331
20B
102
}
  0
BLOCK_RECORD
  5
20C
330
1
100
AcDbSymbolTableRecord
100
AcDbBlockTableRecord
  2
SW_CENTERMARKSYMBOL_9
340
0
102
{BLKREFS
331
217
102
}
  0
BLOCK_RECORD
  5
218
330
1
100
AcDbSymbolTableRecord
100
AcDbBlockTableRecord
  2
SW_CENTERMARKSYMBOL_10
340
0
102
{BLKREFS
331
223
102
}
  0
ENDTAB
  0
ENDSEC
  0
SECTION
  2
BLOCKS
  0
BLOCK
  5
20
330
1F
100
AcDbEntity
  8
0
100
AcDbBlockBegin
  2
*Model_Space
 70
     0
 10
0.0
 20
0.0
 30
0.0
  3
*Model_Space
  1

  0
ENDBLK
  5
21
330
1F
100
AcDbEntity
  8
0
100
AcDbBlockEnd
  0
BLOCK
  5
1C
330
1B
100
AcDbEntity
 67
     1
  8
0
100
AcDbBlockBegin
  2
*Paper_Space
 70
     0
 10
0.0
 20
0.0
 30
0.0
  3
*Paper_Space
  1

  0
ENDBLK
  5
1D
330
1B
100
AcDbEntity
 67
     1
  8
0
100
AcDbBlockEnd
  0
BLOCK
  5
24
330
23
100
AcDbEntity
  8
0
100
AcDbBlockBegin
  2
*Paper_Space0
 70
     0
 10
0.0
 20
0.0
 30
0.0
  3
*Paper_Space0
  1

  0
ENDBLK
  5
25
330
23
100
AcDbEntity
  8
0
100
AcDbBlockEnd
  0
BLOCK
  5
126
330
125
100
AcDbEntity
  8
0
100
AcDbBlockBegin
  2
_D
 70
     0
 10
0.0
 20
0.0
 30
0.0
  3
_D
  1

  0
SOLID
  5
128
330
125
100
AcDbEntity
  8
10
100
AcDbTrace
 10
88.8056017998
 20
259.7597412823
 30
0.0
 11
92.8856017998
 21
259.2517412823
 31
0.0
 12
92.8856017998
 22
260.2677412823
 32
0.0
 13
92.8856017998
 23
260.2677412823
 33
0.0
  0
SOLID
  5
129
330
125
100
AcDbEntity
  8
10
100
AcDbTrace
 10
175.8056017998
 20
259.7597412823
 30
0.0
 11
171.7256017998
 21
260.2677412823
 31
0.0
 12
171.7256017998
 22
259.2517412823
 32
0.0
 13
171.7256017998
 23
259.2517412823
 33
0.0
  0
LINE
  5
12A
330
125
100
AcDbEntity
  8
10
100
AcDbLine
 10
88.8056017998
 20
223.460303712
 30
0.0
 11
88.8056017998
 21
261.7597412823
 31
0.0
  0
LINE
  5
12B
330
125
100
AcDbEntity
  8
10
100
AcDbLine
 10
175.8056017998
 20
253.460303712
 30
0.0
 11
175.8056017998
 21
261.7597412823
 31
0.0
  0
LINE
  5
12C
330
125
100
AcDbEntity
  8
10
100
AcDbLine
 10
88.8056017998
 20
259.7597412823
 30
0.0
 11
175.8056017998
 21
259.7597412823
 31
0.0
  0
MTEXT
  5
12D
330
125
100
AcDbEntity
  8
10
100
AcDbMText
 10
140.0537613981
 20
264.2714786044
 30
0.0
 40
3.5
 41
0.0
 71
     1
 72
     1
  1
43.50
  7
SLDTEXTSTYLE4
 73
     1
 44
1.0
  0
ENDBLK
  5
127
330
125
100
AcDbEntity
  8
0
100
AcDbBlockEnd
  0
BLOCK
  5
131
330
130
100
AcDbEntity
  8
0
100
AcDbBlockBegin
  2
_D_1
 70
     0
 10
0.0
 20
0.0
 30
0.0
  3
_D_1
  1

  0
SOLID
  5
133
330
130
100
AcDbEntity
  8
10
100
AcDbTrace
 10
185.8056017998
 20
253.460303712
 30
0.0
 11
185.2976017998
 21
249.380303712
 31
0.0
 12
186.3136017998
 22
249.380303712
 32
0.0
 13
186.3136017998
 23
249.380303712
 33
0.0
  0
SOLID
  5
134
330
130
100
AcDbEntity
  8
10
100
AcDbTrace
 10
185.8056017998
 20
177.460303712
 30
0.0
 11
186.3136017998
 21
181.540303712
 31
0.0
 12
185.2976017998
 22
181.540303712
 32
0.0
 13
185.2976017998
 23
181.540303712
 33
0.0
  0
LINE
  5
135
330
130
100
AcDbEntity
  8
10
100
AcDbLine
 10
175.8056017998
 20
253.460303712
 30
0.0
 11
187.8056017998
 21
253.460303712
 31
0.0
  0
LINE
  5
136
330
130
100
AcDbEntity
  8
10
100
AcDbLine
 10
175.8056017998
 20
177.460303712
 30
0.0
 11
187.8056017998
 21
177.460303712
 31
0.0
  0
LINE
  5
137
330
130
100
AcDbEntity
  8
10
100
AcDbLine
 10
185.8056017998
 20
253.460303712
 30
0.0
 11
185.8056017998
 21
177.460303712
 31
0.0
  0
MTEXT
  5
138
330
130
100
AcDbEntity
  8
10
100
AcDbMText
 10
181.2938644777
 20
215.050595286
 30
0.0
 40
3.5
 41
0.0
 71
     1
 72
     1
  1
38
  7
SLDTEXTSTYLE4
 11
-7.044195017643634E-15
 21
1.0
 31
0.0
 73
     1
 44
1.0
  0
ENDBLK
  5
132
330
130
100
AcDbEntity
  8
0
100
AcDbBlockEnd
  0
BLOCK
  5
157
330
156
100
AcDbEntity
  8
0
100
AcDbBlockBegin
  2
_D_2
 70
     0
 10
0.0
 20
0.0
 30
0.0
  3
_D_2
  1

  0
SOLID
  5
159
330
156
100
AcDbEntity
  8
10
100
AcDbTrace
 10
183.7910605726
 20
122.1225309336
 30
0.0
 11
183.2830605726
 21
118.0425309336
 31
0.0
 12
184.2990605726
 22
118.0425309336
 32
0.0
 13
184.2990605726
 23
118.0425309336
 33
0.0
  0
SOLID
  5
15A
330
156
100
AcDbEntity
  8
10
100
AcDbTrace
 10
183.7910605726
 20
79.1225309336
 30
0.0
 11
184.2990605726
 21
83.2025309336
 31
0.0
 12
183.2830605726
 22
83.2025309336
 32
0.0
 13
183.2830605726
 23
83.2025309336
 33
0.0
  0
LINE
  5
15B
330
156
100
AcDbEntity
  8
10
100
AcDbLine
 10
175.8056017998
 20
122.1225309336
 30
0.0
 11
185.7910605726
 21
122.1225309336
 31
0.0
  0
LINE
  5
15C
330
156
100
AcDbEntity
  8
10
100
AcDbLine
 10
172.8056017998
 20
79.1225309336
 30
0.0
 11
185.7910605726
 21
79.1225309336
 31
0.0
  0
LINE
  5
15D
330
156
100
AcDbEntity
  8
10
100
AcDbLine
 10
183.7910605726
 20
122.1225309336
 30
0.0
 11
183.7910605726
 21
79.1225309336
 31
0.0
  0
MTEXT
  5
15E
330
156
100
AcDbEntity
  8
10
100
AcDbMText
 10
179.2793232506
 20
87.4975298539
 30
0.0
 40
3.5
 41
0.0
 71
     1
 72
     1
  1
21.50
  7
SLDTEXTSTYLE4
 11
-7.044195017643634E-15
 21
1.0
 31
0.0
 73
     1
 44
1.0
  0
ENDBLK
  5
158
330
156
100
AcDbEntity
  8
0
100
AcDbBlockEnd
  0
BLOCK
  5
162
330
161
100
AcDbEntity
  8
0
100
AcDbBlockBegin
  2
_D_3
 70
     0
 10
0.0
 20
0.0
 30
0.0
  3
_D_3
  1

  0
SOLID
  5
164
330
161
100
AcDbEntity
  8
10
100
AcDbTrace
 10
172.8056017998
 20
127.9827144591
 30
0.0
 11
168.7256017998
 21
128.4907144591
 31
0.0
 12
168.7256017998
 22
127.4747144591
 32
0.0
 13
168.7256017998
 23
127.4747144591
 33
0.0
  0
SOLID
  5
165
330
161
100
AcDbEntity
  8
10
100
AcDbTrace
 10
175.8056017998
 20
127.9827144591
 30
0.0
 11
179.8856017998
 21
127.4747144591
 31
0.0
 12
179.8856017998
 22
128.4907144591
 32
0.0
 13
179.8856017998
 23
128.4907144591
 33
0.0
  0
LINE
  5
166
330
161
100
AcDbEntity
  8
10
100
AcDbLine
 10
172.8056017998
 20
122.1225309336
 30
0.0
 11
172.8056017998
 21
129.9827144591
 31
0.0
  0
LINE
  5
167
330
161
100
AcDbEntity
  8
10
100
AcDbLine
 10
175.8056017998
 20
104.1225309336
 30
0.0
 11
175.8056017998
 21
129.9827144591
 31
0.0
  0
LINE
  5
168
330
161
100
AcDbEntity
  8
10
100
AcDbLine
 10
172.8056017998
 20
127.9827144591
 30
0.0
 11
166.4556017998
 21
127.9827144591
 31
0.0
  0
LINE
  5
169
330
161
100
AcDbEntity
  8
10
100
AcDbLine
 10
172.8056017998
 20
127.9827144591
 30
0.0
 11
175.8056017998
 21
127.9827144591
 31
0.0
  0
LINE
  5
16A
330
161
100
AcDbEntity
  8
10
100
AcDbLine
 10
175.8056017998
 20
127.9827144591
 30
0.0
 11
181.9864658804
 21
127.9827144591
 31
0.0
  0
MTEXT
  5
16B
330
161
100
AcDbEntity
  8
10
100
AcDbMText
 10
175.8468819948
 20
132.4944517811
 30
0.0
 40
3.5
 41
0.0
 71
     1
 72
     1
  1
1.50
  7
SLDTEXTSTYLE4
 73
     1
 44
1.0
  0
ENDBLK
  5
163
330
161
100
AcDbEntity
  8
0
100
AcDbBlockEnd
  0
BLOCK
  5
182
330
181
100
AcDbEntity
  8
0
100
AcDbBlockBegin
  2
_D_4
 70
     0
 10
0.0
 20
0.0
 30
0.0
  3
_D_4
  1

  0
SOLID
  5
184
330
181
100
AcDbEntity
  8
10
100
AcDbTrace
 10
272.3281664792
 20
259.2079832253
 30
0.0
 11
276.4081664792
 21
258.6999832253
 31
0.0
 12
276.4081664792
 22
259.7159832253
 32
0.0
 13
276.4081664792
 23
259.7159832253
 33
0.0
  0
SOLID
  5
185
330
181
100
AcDbEntity
  8
10
100
AcDbTrace
 10
315.3281664792
 20
259.2079832253
 30
0.0
 11
311.2481664792
 21
259.7159832253
 31
0.0
 12
311.2481664792
 22
258.6999832253
 32
0.0
 13
311.2481664792
 23
258.6999832253
 33
0.0
  0
LINE
  5
186
330
181
100
AcDbEntity
  8
10
100
AcDbLine
 10
272.3281664792
 20
251.460303712
 30
0.0
 11
272.3281664792
 21
261.2079832253
 31
0.0
  0
LINE
  5
187
330
181
100
AcDbEntity
  8
10
100
AcDbLine
 10
315.3281664792
 20
253.460303712
 30
0.0
 11
315.3281664792
 21
261.2079832253
 31
0.0
  0
LINE
  5
188
330
181
100
AcDbEntity
  8
10
100
AcDbLine
 10
272.3281664792
 20
259.2079832253
 30
0.0
 11
315.3281664792
 21
259.2079832253
 31
0.0
  0
MTEXT
  5
189
330
181
100
AcDbEntity
  8
10
100
AcDbMText
 10
295.2985952559
 20
263.7197205473
 30
0.0
 40
3.5
 41
0.0
 71
     1
 72
     1
  1
21.50
  7
SLDTEXTSTYLE4
 73
     1
 44
1.0
  0
ENDBLK
  5
183
330
181
100
AcDbEntity
  8
0
100
AcDbBlockEnd
  0
BLOCK
  5
18D
330
18C
100
AcDbEntity
  8
0
100
AcDbBlockBegin
  2
_NONE
 70
     0
 10
0.0
 20
0.0
 30
0.0
  3
_NONE
  1

  0
ENDBLK
  5
18E
330
18C
100
AcDbEntity
  8
0
100
AcDbBlockEnd
  0
BLOCK
  5
190
330
18F
100
AcDbEntity
  8
0
100
AcDbBlockBegin
  2
_D_5
 70
     0
 10
0.0
 20
0.0
 30
0.0
  3
_D_5
  1

  0
SOLID
  5
192
330
18F
100
AcDbEntity
  8
10
100
AcDbTrace
 10
299.3409522798
 20
211.610519911
 30
0.0
 11
302.6730117667
 21
209.2018182741
 31
0.0
 12
303.1619343095
 22
210.0924420708
 32
0.0
 13
303.1619343095
 23
210.0924420708
 33
0.0
  0
LINE
  5
193
330
18F
100
AcDbEntity
  8
10
100
AcDbLine
 10
299.3409522798
 20
211.610519911
 30
0.0
 11
309.6170910952
 21
205.9692649413
 31
0.0
  0
LINE
  5
194
330
18F
100
AcDbEntity
  8
10
100
AcDbLine
 10
299.3409522798
 20
211.610519911
 30
0.0
 11
285.3153806786
 21
219.3100875131
 31
0.0
  0
MTEXT
  5
195
330
18F
100
AcDbEntity
  8
10
100
AcDbMText
 10
306.8304136296
 20
212.6255156435
 30
0.0
 40
3.5
 41
0.0
 71
     1
 72
     1
  1
%%c
  7
SLDTEXTSTYLE4
 11
0.8765982250746689
 21
-0.4812229751330875
 31
0.0
 73
     1
 44
1.0
  0
MTEXT
  5
196
330
18F
100
AcDbEntity
  8
10
100
AcDbMText
 10
310.4303235249
 20
210.6326498251
 30
0.0
 40
3.5
 41
0.0
 71
     1
 72
     1
  1
8
  7
SLDTEXTSTYLE4
 11
0.8765982250746689
 21
-0.4812229751330875
 31
0.0
 73
     1
 44
1.0
  0
ENDBLK
  5
191
330
18F
100
AcDbEntity
  8
0
100
AcDbBlockEnd
  0
BLOCK
  5
199
330
198
100
AcDbEntity
  8
0
100
AcDbBlockBegin
  2
_D_6
 70
     0
 10
0.0
 20
0.0
 30
0.0
  3
_D_6
  1

  0
SOLID
  5
19B
330
198
100
AcDbEntity
  8
10
100
AcDbTrace
 10
307.5521909519
 20
232.4728900572
 30
0.0
 11
307.504397808
 21
228.3616639851
 31
0.0
 12
308.5140039447
 22
228.4754684173
 32
0.0
 13
308.5140039447
 23
228.4754684173
 33
0.0
  0
LINE
  5
19C
330
198
100
AcDbEntity
  8
10
100
AcDbLine
 10
307.5521909519
 20
232.4728900572
 30
0.0
 11
309.0210753185
 21
219.4418099624
 31
0.0
  0
LINE
  5
19D
330
198
100
AcDbEntity
  8
10
100
AcDbLine
 10
307.5521909519
 20
232.4728900572
 30
0.0
 11
307.1041420064
 21
236.4477173669
 31
0.0
  0
MTEXT
  5
19E
330
198
100
AcDbEntity
  8
10
100
AcDbMText
 10
312.8270469923
 20
225.5574106819
 30
0.0
 40
3.5
 41
0.0
 71
     1
 72
     1
  1
%%c
  7
SLDTEXTSTYLE4
 11
0.1120122363761447
 21
-0.993706827440576
 31
0.0
 73
     1
 44
1.0
  0
MTEXT
  5
19F
330
198
100
AcDbEntity
  8
10
100
AcDbMText
 10
313.2734508208
 20
221.4669841704
 30
0.0
 40
3.5
 41
0.0
 71
     1
 72
     1
  1
2
  7
SLDTEXTSTYLE4
 11
0.1120122363761447
 21
-0.993706827440576
 31
0.0
 73
     1
 44
1.0
  0
ENDBLK
  5
19A
330
198
100
AcDbEntity
  8
0
100
AcDbBlockEnd
  0
BLOCK
  5
1A1
330
1A0
100
AcDbEntity
  8
0
100
AcDbBlockBegin
  2
SW_CENTERMARKSYMBOL_0
 70
     0
 10
0.0
 20
0.0
 30
0.0
  3
SW_CENTERMARKSYMBOL_0
  1

  0
LINE
  5
1A3
330
1A0
100
AcDbEntity
  8
10
 62
     0
100
AcDbLine
 10
0.0
 20
0.0
 30
0.0
 11
0.0
 21
5.0
 31
0.0
  0
LINE
  5
1A4
330
1A0
100
AcDbEntity
  8
10
 62
     0
100
AcDbLine
 10
0.0
 20
0.0
 30
0.0
 11
-5.0
 21
0.0
 31
0.0
  0
LINE
  5
1A5
330
1A0
100
AcDbEntity
  8
10
 62
     0
100
AcDbLine
 10
0.0
 20
0.0
 30
0.0
 11
0.0
 21
-5.0
 31
0.0
  0
LINE
  5
1A6
330
1A0
100
AcDbEntity
  8
10
 62
     0
100
AcDbLine
 10
0.0
 20
0.0
 30
0.0
 11
5.0
 21
0.0
 31
0.0
  0
LINE
  5
1A7
330
1A0
100
AcDbEntity
  8
10
 62
     0
100
AcDbLine
 10
0.0
 20
10.0
 30
0.0
 11
0.0
 21
13.0
 31
0.0
  0
LINE
  5
1A8
330
1A0
100
AcDbEntity
  8
10
 62
     0
100
AcDbLine
 10
-10.0
 20
0.0
 30
0.0
 11
-13.0
 21
0.0
 31
0.0
  0
LINE
  5
1A9
330
1A0
100
AcDbEntity
  8
10
 62
     0
100
AcDbLine
 10
0.0
 20
-10.0
 30
0.0
 11
0.0
 21
-13.0
 31
0.0
  0
LINE
  5
1AA
330
1A0
100
AcDbEntity
  8
10
 62
     0
100
AcDbLine
 10
10.0
 20
0.0
 30
0.0
 11
13.0
 21
0.0
 31
0.0
  0
ENDBLK
  5
1A2
330
1A0
100
AcDbEntity
  8
0
100
AcDbBlockEnd
  0
BLOCK
  5
1AD
330
1AC
100
AcDbEntity
  8
0
100
AcDbBlockBegin
  2
SW_CENTERMARKSYMBOL_1
 70
     0
 10
0.0
 20
0.0
 30
0.0
  3
SW_CENTERMARKSYMBOL_1
  1

  0
LINE
  5
1AF
330
1AC
100
AcDbEntity
  8
10
 62
     0
100
AcDbLine
 10
0.0
 20
0.0
 30
0.0
 11
0.0
 21
5.0
 31
0.0
  0
LINE
  5
1B0
330
1AC
100
AcDbEntity
  8
10
 62
     0
100
AcDbLine
 10
0.0
 20
0.0
 30
0.0
 11
-5.0
 21
0.0
 31
0.0
  0
LINE
  5
1B1
330
1AC
100
AcDbEntity
  8
10
 62
     0
100
AcDbLine
 10
0.0
 20
0.0
 30
0.0
 11
0.0
 21
-5.0
 31
0.0
  0
LINE
  5
1B2
330
1AC
100
AcDbEntity
  8
10
 62
     0
100
AcDbLine
 10
0.0
 20
0.0
 30
0.0
 11
5.0
 21
0.0
 31
0.0
  0
LINE
  5
1B3
330
1AC
100
AcDbEntity
  8
10
 62
     0
100
AcDbLine
 10
0.0
 20
5.0
 30
0.0
 11
0.0
 21
7.0
 31
0.0
  0
LINE
  5
1B4
330
1AC
100
AcDbEntity
  8
10
 62
     0
100
AcDbLine
 10
-5.0
 20
0.0
 30
0.0
 11
-7.0
 21
0.0
 31
0.0
  0
LINE
  5
1B5
330
1AC
100
AcDbEntity
  8
10
 62
     0
100
AcDbLine
 10
0.0
 20
-5.0
 30
0.0
 11
0.0
 21
-7.0
 31
0.0
  0
LINE
  5
1B6
330
1AC
100
AcDbEntity
  8
10
 62
     0
100
AcDbLine
 10
5.0
 20
0.0
 30
0.0
 11
7.0
 21
0.0
 31
0.0
  0
ENDBLK
  5
1AE
330
1AC
100
AcDbEntity
  8
0
100
AcDbBlockEnd
  0
BLOCK
  5
1B9
330
1B8
100
AcDbEntity
  8
0
100
AcDbBlockBegin
  2
SW_CENTERMARKSYMBOL_2
 70
     0
 10
0.0
 20
0.0
 30
0.0
  3
SW_CENTERMARKSYMBOL_2
  1

  0
LINE
  5
1BB
330
1B8
100
AcDbEntity
  8
10
 62
     0
100
AcDbLine
 10
0.0
 20
0.0
 30
0.0
 11
0.0
 21
5.0
 31
0.0
  0
LINE
  5
1BC
330
1B8
100
AcDbEntity
  8
10
 62
     0
100
AcDbLine
 10
0.0
 20
0.0
 30
0.0
 11
-5.0
 21
0.0
 31
0.0
  0
LINE
  5
1BD
330
1B8
100
AcDbEntity
  8
10
 62
     0
100
AcDbLine
 10
0.0
 20
0.0
 30
0.0
 11
0.0
 21
-5.0
 31
0.0
  0
LINE
  5
1BE
330
1B8
100
AcDbEntity
  8
10
 62
     0
100
AcDbLine
 10
0.0
 20
0.0
 30
0.0
 11
5.0
 21
0.0
 31
0.0
  0
LINE
  5
1BF
330
1B8
100
AcDbEntity
  8
10
 62
     0
100
AcDbLine
 10
0.0
 20
5.0
 30
0.0
 11
0.0
 21
7.0
 31
0.0
  0
LINE
  5
1C0
330
1B8
100
AcDbEntity
  8
10
 62
     0
100
AcDbLine
 10
-5.0
 20
0.0
 30
0.0
 11
-7.0
 21
0.0
 31
0.0
  0
LINE
  5
1C1
330
1B8
100
AcDbEntity
  8
10
 62
     0
100
AcDbLine
 10
0.0
 20
-5.0
 30
0.0
 11
0.0
 21
-7.0
 31
0.0
  0
LINE
  5
1C2
330
1B8
100
AcDbEntity
  8
10
 62
     0
100
AcDbLine
 10
5.0
 20
0.0
 30
0.0
 11
7.0
 21
0.0
 31
0.0
  0
ENDBLK
  5
1BA
330
1B8
100
AcDbEntity
  8
0
100
AcDbBlockEnd
  0
BLOCK
  5
1C5
330
1C4
100
AcDbEntity
  8
0
100
AcDbBlockBegin
  2
SW_CENTERMARKSYMBOL_3
 70
     0
 10
0.0
 20
0.0
 30
0.0
  3
SW_CENTERMARKSYMBOL_3
  1

  0
LINE
  5
1C7
330
1C4
100
AcDbEntity
  8
10
 62
     0
100
AcDbLine
 10
0.0
 20
0.0
 30
0.0
 11
0.0
 21
5.0
 31
0.0
  0
LINE
  5
1C8
330
1C4
100
AcDbEntity
  8
10
 62
     0
100
AcDbLine
 10
0.0
 20
0.0
 30
0.0
 11
-5.0
 21
0.0
 31
0.0
  0
LINE
  5
1C9
330
1C4
100
AcDbEntity
  8
10
 62
     0
100
AcDbLine
 10
0.0
 20
0.0
 30
0.0
 11
0.0
 21
-5.0
 31
0.0
  0
LINE
  5
1CA
330
1C4
100
AcDbEntity
  8
10
 62
     0
100
AcDbLine
 10
0.0
 20
0.0
 30
0.0
 11
5.0
 21
0.0
 31
0.0
  0
LINE
  5
1CB
330
1C4
100
AcDbEntity
  8
10
 62
     0
100
AcDbLine
 10
0.0
 20
5.0
 30
0.0
 11
0.0
 21
7.0
 31
0.0
  0
LINE
  5
1CC
330
1C4
100
AcDbEntity
  8
10
 62
     0
100
AcDbLine
 10
-5.0
 20
0.0
 30
0.0
 11
-7.0
 21
0.0
 31
0.0
  0
LINE
  5
1CD
330
1C4
100
AcDbEntity
  8
10
 62
     0
100
AcDbLine
 10
0.0
 20
-5.0
 30
0.0
 11
0.0
 21
-7.0
 31
0.0
  0
LINE
  5
1CE
330
1C4
100
AcDbEntity
  8
10
 62
     0
100
AcDbLine
 10
5.0
 20
0.0
 30
0.0
 11
7.0
 21
0.0
 31
0.0
  0
ENDBLK
  5
1C6
330
1C4
100
AcDbEntity
  8
0
100
AcDbBlockEnd
  0
BLOCK
  5
1D1
330
1D0
100
AcDbEntity
  8
0
100
AcDbBlockBegin
  2
SW_CENTERMARKSYMBOL_4
 70
     0
 10
0.0
 20
0.0
 30
0.0
  3
SW_CENTERMARKSYMBOL_4
  1

  0
LINE
  5
1D3
330
1D0
100
AcDbEntity
  8
10
 62
     0
100
AcDbLine
 10
0.0
 20
0.0
 30
0.0
 11
0.0
 21
5.0
 31
0.0
  0
LINE
  5
1D4
330
1D0
100
AcDbEntity
  8
10
 62
     0
100
AcDbLine
 10
0.0
 20
0.0
 30
0.0
 11
-5.0
 21
0.0
 31
0.0
  0
LINE
  5
1D5
330
1D0
100
AcDbEntity
  8
10
 62
     0
100
AcDbLine
 10
0.0
 20
0.0
 30
0.0
 11
0.0
 21
-5.0
 31
0.0
  0
LINE
  5
1D6
330
1D0
100
AcDbEntity
  8
10
 62
     0
100
AcDbLine
 10
0.0
 20
0.0
 30
0.0
 11
5.0
 21
0.0
 31
0.0
  0
LINE
  5
1D7
330
1D0
100
AcDbEntity
  8
10
 62
     0
100
AcDbLine
 10
0.0
 20
5.0
 30
0.0
 11
0.0
 21
7.0
 31
0.0
  0
LINE
  5
1D8
330
1D0
100
AcDbEntity
  8
10
 62
     0
100
AcDbLine
 10
-5.0
 20
0.0
 30
0.0
 11
-7.0
 21
0.0
 31
0.0
  0
LINE
  5
1D9
330
1D0
100
AcDbEntity
  8
10
 62
     0
100
AcDbLine
 10
0.0
 20
-5.0
 30
0.0
 11
0.0
 21
-7.0
 31
0.0
  0
LINE
  5
1DA
330
1D0
100
AcDbEntity
  8
10
 62
     0
100
AcDbLine
 10
5.0
 20
0.0
 30
0.0
 11
7.0
 21
0.0
 31
0.0
  0
ENDBLK
  5
1D2
330
1D0
100
AcDbEntity
  8
0
100
AcDbBlockEnd
  0
BLOCK
  5
1DD
330
1DC
100
AcDbEntity
  8
0
100
AcDbBlockBegin
  2
SW_CENTERMARKSYMBOL_5
 70
     0
 10
0.0
 20
0.0
 30
0.0
  3
SW_CENTERMARKSYMBOL_5
  1

  0
LINE
  5
1DF
330
1DC
100
AcDbEntity
  8
10
 62
     0
100
AcDbLine
 10
0.0
 20
0.0
 30
0.0
 11
0.0
 21
5.0
 31
0.0
  0
LINE
  5
1E0
330
1DC
100
AcDbEntity
  8
10
 62
     0
100
AcDbLine
 10
0.0
 20
0.0
 30
0.0
 11
-5.0
 21
0.0
 31
0.0
  0
LINE
  5
1E1
330
1DC
100
AcDbEntity
  8
10
 62
     0
100
AcDbLine
 10
0.0
 20
0.0
 30
0.0
 11
0.0
 21
-5.0
 31
0.0
  0
LINE
  5
1E2
330
1DC
100
AcDbEntity
  8
10
 62
     0
100
AcDbLine
 10
0.0
 20
0.0
 30
0.0
 11
5.0
 21
0.0
 31
0.0
  0
LINE
  5
1E3
330
1DC
100
AcDbEntity
  8
10
 62
     0
100
AcDbLine
 10
0.0
 20
5.0
 30
0.0
 11
0.0
 21
7.0
 31
0.0
  0
LINE
  5
1E4
330
1DC
100
AcDbEntity
  8
10
 62
     0
100
AcDbLine
 10
-5.0
 20
0.0
 30
0.0
 11
-7.0
 21
0.0
 31
0.0
  0
LINE
  5
1E5
330
1DC
100
AcDbEntity
  8
10
 62
     0
100
AcDbLine
 10
0.0
 20
-5.0
 30
0.0
 11
0.0
 21
-7.0
 31
0.0
  0
LINE
  5
1E6
330
1DC
100
AcDbEntity
  8
10
 62
     0
100
AcDbLine
 10
5.0
 20
0.0
 30
0.0
 11
7.0
 21
0.0
 31
0.0
  0
ENDBLK
  5
1DE
330
1DC
100
AcDbEntity
  8
0
100
AcDbBlockEnd
  0
BLOCK
  5
1E9
330
1E8
100
AcDbEntity
  8
0
100
AcDbBlockBegin
  2
SW_CENTERMARKSYMBOL_6
 70
     0
 10
0.0
 20
0.0
 30
0.0
  3
SW_CENTERMARKSYMBOL_6
  1

  0
LINE
  5
1EB
330
1E8
100
AcDbEntity
  8
10
 62
     0
100
AcDbLine
 10
0.0
 20
0.0
 30
0.0
 11
0.0
 21
5.0
 31
0.0
  0
LINE
  5
1EC
330
1E8
100
AcDbEntity
  8
10
 62
     0
100
AcDbLine
 10
0.0
 20
0.0
 30
0.0
 11
-5.0
 21
0.0
 31
0.0
  0
LINE
  5
1ED
330
1E8
100
AcDbEntity
  8
10
 62
     0
100
AcDbLine
 10
0.0
 20
0.0
 30
0.0
 11
0.0
 21
-5.0
 31
0.0
  0
LINE
  5
1EE
330
1E8
100
AcDbEntity
  8
10
 62
     0
100
AcDbLine
 10
0.0
 20
0.0
 30
0.0
 11
5.0
 21
0.0
 31
0.0
  0
LINE
  5
1EF
330
1E8
100
AcDbEntity
  8
10
 62
     0
100
AcDbLine
 10
0.0
 20
5.0
 30
0.0
 11
0.0
 21
7.0
 31
0.0
  0
LINE
  5
1F0
330
1E8
100
AcDbEntity
  8
10
 62
     0
100
AcDbLine
 10
-5.0
 20
0.0
 30
0.0
 11
-7.0
 21
0.0
 31
0.0
  0
LINE
  5
1F1
330
1E8
100
AcDbEntity
  8
10
 62
     0
100
AcDbLine
 10
0.0
 20
-5.0
 30
0.0
 11
0.0
 21
-7.0
 31
0.0
  0
LINE
  5
1F2
330
1E8
100
AcDbEntity
  8
10
 62
     0
100
AcDbLine
 10
5.0
 20
0.0
 30
0.0
 11
7.0
 21
0.0
 31
0.0
  0
ENDBLK
  5
1EA
330
1E8
100
AcDbEntity
  8
0
100
AcDbBlockEnd
  0
BLOCK
  5
1F5
330
1F4
100
AcDbEntity
  8
0
100
AcDbBlockBegin
  2
SW_CENTERMARKSYMBOL_7
 70
     0
 10
0.0
 20
0.0
 30
0.0
  3
SW_CENTERMARKSYMBOL_7
  1

  0
LINE
  5
1F7
330
1F4
100
AcDbEntity
  8
10
 62
     0
100
AcDbLine
 10
0.0
 20
0.0
 30
0.0
 11
0.0
 21
5.0
 31
0.0
  0
LINE
  5
1F8
330
1F4
100
AcDbEntity
  8
10
 62
     0
100
AcDbLine
 10
0.0
 20
0.0
 30
0.0
 11
-5.0
 21
0.0
 31
0.0
  0
LINE
  5
1F9
330
1F4
100
AcDbEntity
  8
10
 62
     0
100
AcDbLine
 10
0.0
 20
0.0
 30
0.0
 11
0.0
 21
-5.0
 31
0.0
  0
LINE
  5
1FA
330
1F4
100
AcDbEntity
  8
10
 62
     0
100
AcDbLine
 10
0.0
 20
0.0
 30
0.0
 11
5.0
 21
0.0
 31
0.0
  0
LINE
  5
1FB
330
1F4
100
AcDbEntity
  8
10
 62
     0
100
AcDbLine
 10
0.0
 20
5.0
 30
0.0
 11
0.0
 21
7.0
 31
0.0
  0
LINE
  5
1FC
330
1F4
100
AcDbEntity
  8
10
 62
     0
100
AcDbLine
 10
-5.0
 20
0.0
 30
0.0
 11
-7.0
 21
0.0
 31
0.0
  0
LINE
  5
1FD
330
1F4
100
AcDbEntity
  8
10
 62
     0
100
AcDbLine
 10
0.0
 20
-5.0
 30
0.0
 11
0.0
 21
-7.0
 31
0.0
  0
LINE
  5
1FE
330
1F4
100
AcDbEntity
  8
10
 62
     0
100
AcDbLine
 10
5.0
 20
0.0
 30
0.0
 11
7.0
 21
0.0
 31
0.0
  0
ENDBLK
  5
1F6
330
1F4
100
AcDbEntity
  8
0
100
AcDbBlockEnd
  0
BLOCK
  5
201
330
200
100
AcDbEntity
  8
0
100
AcDbBlockBegin
  2
SW_CENTERMARKSYMBOL_8
 70
     0
 10
0.0
 20
0.0
 30
0.0
  3
SW_CENTERMARKSYMBOL_8
  1

  0
LINE
  5
203
330
200
100
AcDbEntity
  8
10
 62
     0
100
AcDbLine
 10
0.0
 20
0.0
 30
0.0
 11
0.0
 21
5.0
 31
0.0
  0
LINE
  5
204
330
200
100
AcDbEntity
  8
10
 62
     0
100
AcDbLine
 10
0.0
 20
0.0
 30
0.0
 11
-5.0
 21
0.0
 31
0.0
  0
LINE
  5
205
330
200
100
AcDbEntity
  8
10
 62
     0
100
AcDbLine
 10
0.0
 20
0.0
 30
0.0
 11
0.0
 21
-5.0
 31
0.0
  0
LINE
  5
206
330
200
100
AcDbEntity
  8
10
 62
     0
100
AcDbLine
 10
0.0
 20
0.0
 30
0.0
 11
5.0
 21
0.0
 31
0.0
  0
LINE
  5
207
330
200
100
AcDbEntity
  8
10
 62
     0
100
AcDbLine
 10
0.0
 20
5.0
 30
0.0
 11
0.0
 21
7.0
 31
0.0
  0
LINE
  5
208
330
200
100
AcDbEntity
  8
10
 62
     0
100
AcDbLine
 10
-5.0
 20
0.0
 30
0.0
 11
-7.0
 21
0.0
 31
0.0
  0
LINE
  5
209
330
200
100
AcDbEntity
  8
10
 62
     0
100
AcDbLine
 10
0.0
 20
-5.0
 30
0.0
 11
0.0
 21
-7.0
 31
0.0
  0
LINE
  5
20A
330
200
100
AcDbEntity
  8
10
 62
     0
100
AcDbLine
 10
5.0
 20
0.0
 30
0.0
 11
7.0
 21
0.0
 31
0.0
  0
ENDBLK
  5
202
330
200
100
AcDbEntity
  8
0
100
AcDbBlockEnd
  0
BLOCK
  5
20D
330
20C
100
AcDbEntity
  8
0
100
AcDbBlockBegin
  2
SW_CENTERMARKSYMBOL_9
 70
     0
 10
0.0
 20
0.0
 30
0.0
  3
SW_CENTERMARKSYMBOL_9
  1

  0
LINE
  5
20F
330
20C
100
AcDbEntity
  8
10
 62
     0
100
AcDbLine
 10
0.0
 20
0.0
 30
0.0
 11
0.0
 21
5.0
 31
0.0
  0
LINE
  5
210
330
20C
100
AcDbEntity
  8
10
 62
     0
100
AcDbLine
 10
0.0
 20
0.0
 30
0.0
 11
-5.0
 21
0.0
 31
0.0
  0
LINE
  5
211
330
20C
100
AcDbEntity
  8
10
 62
     0
100
AcDbLine
 10
0.0
 20
0.0
 30
0.0
 11
0.0
 21
-5.0
 31
0.0
  0
LINE
  5
212
330
20C
100
AcDbEntity
  8
10
 62
     0
100
AcDbLine
 10
0.0
 20
0.0
 30
0.0
 11
5.0
 21
0.0
 31
0.0
  0
LINE
  5
213
330
20C
100
AcDbEntity
  8
10
 62
     0
100
AcDbLine
 10
0.0
 20
5.0
 30
0.0
 11
0.0
 21
7.0
 31
0.0
  0
LINE
  5
214
330
20C
100
AcDbEntity
  8
10
 62
     0
100
AcDbLine
 10
-5.0
 20
0.0
 30
0.0
 11
-7.0
 21
0.0
 31
0.0
  0
LINE
  5
215
330
20C
100
AcDbEntity
  8
10
 62
     0
100
AcDbLine
 10
0.0
 20
-5.0
 30
0.0
 11
0.0
 21
-7.0
 31
0.0
  0
LINE
  5
216
330
20C
100
AcDbEntity
  8
10
 62
     0
100
AcDbLine
 10
5.0
 20
0.0
 30
0.0
 11
7.0
 21
0.0
 31
0.0
  0
ENDBLK
  5
20E
330
20C
100
AcDbEntity
  8
0
100
AcDbBlockEnd
  0
BLOCK
  5
219
330
218
100
AcDbEntity
  8
0
100
AcDbBlockBegin
  2
SW_CENTERMARKSYMBOL_10
 70
     0
 10
0.0
 20
0.0
 30
0.0
  3
SW_CENTERMARKSYMBOL_10
  1

  0
LINE
  5
21B
330
218
100
AcDbEntity
  8
10
 62
     0
100
AcDbLine
 10
0.0
 20
0.0
 30
0.0
 11
0.0
 21
5.0
 31
0.0
  0
LINE
  5
21C
330
218
100
AcDbEntity
  8
10
 62
     0
100
AcDbLine
 10
0.0
 20
0.0
 30
0.0
 11
-5.0
 21
0.0
 31
0.0
  0
LINE
  5
21D
330
218
100
AcDbEntity
  8
10
 62
     0
100
AcDbLine
 10
0.0
 20
0.0
 30
0.0
 11
0.0
 21
-5.0
 31
0.0
  0
LINE
  5
21E
330
218
100
AcDbEntity
  8
10
 62
     0
100
AcDbLine
 10
0.0
 20
0.0
 30
0.0
 11
5.0
 21
0.0
 31
0.0
  0
LINE
  5
21F
330
218
100
AcDbEntity
  8
10
 62
     0
100
AcDbLine
 10
0.0
 20
5.0
 30
0.0
 11
0.0
 21
7.0
 31
0.0
  0
LINE
  5
220
330
218
100
AcDbEntity
  8
10
 62
     0
100
AcDbLine
 10
-5.0
 20
0.0
 30
0.0
 11
-7.0
 21
0.0
 31
0.0
  0
LINE
  5
221
330
218
100
AcDbEntity
  8
10
 62
     0
100
AcDbLine
 10
0.0
 20
-5.0
 30
0.0
 11
0.0
 21
-7.0
 31
0.0
  0
LINE
  5
222
330
218
100
AcDbEntity
  8
10
 62
     0
100
AcDbLine
 10
5.0
 20
0.0
 30
0.0
 11
7.0
 21
0.0
 31
0.0
  0
ENDBLK
  5
21A
330
218
100
AcDbEntity
  8
0
100
AcDbBlockEnd
  0
ENDSEC
  0
SECTION
  2
ENTITIES
  0
LINE
  5
80
330
1F
100
AcDbEntity
  8
5
 62
     7
370
    25
100
AcDbLine
 10
0.0
 20
5.0
 30
0.0
 11
415.0
 21
5.0
 31
0.0
  0
LINE
  5
81
330
1F
100
AcDbEntity
  8
5
 62
     7
370
    25
100
AcDbLine
 10
415.0
 20
5.0
 30
0.0
 11
415.0
 21
292.0
 31
0.0
  0
LINE
  5
82
330
1F
100
AcDbEntity
  8
5
 62
     7
370
    25
100
AcDbLine
 10
415.0
 20
292.0
 30
0.0
 11
25.0
 21
292.0
 31
0.0
  0
LINE
  5
83
330
1F
100
AcDbEntity
  8
5
 62
     7
370
    25
100
AcDbLine
 10
25.0
 20
292.0
 30
0.0
 11
25.0
 21
5.0
 31
0.0
  0
LINE
  5
84
330
1F
100
AcDbEntity
  8
5
 62
     7
370
    25
100
AcDbLine
 10
25.0
 20
280.0
 30
0.0
 11
85.0
 21
280.0
 31
0.0
  0
LINE
  5
85
330
1F
100
AcDbEntity
  8
5
 62
     7
370
    25
100
AcDbLine
 10
85.0
 20
280.0
 30
0.0
 11
85.0
 21
292.0
 31
0.0
  0
LINE
  5
86
330
1F
100
AcDbEntity
  8
9
 62
     7
100
AcDbLine
 10
0.0
 20
0.0
 30
0.0
 11
420.0
 21
0.0
 31
0.0
  0
LINE
  5
87
330
1F
100
AcDbEntity
  8
5
100
AcDbLine
 10
70.0
 20
297.0
 30
0.0
 11
70.0
 21
292.0
 31
0.0
  0
LINE
  5
88
330
1F
100
AcDbEntity
  8
5
100
AcDbLine
 10
120.0
 20
297.0
 30
0.0
 11
120.0
 21
292.0
 31
0.0
  0
LINE
  5
89
330
1F
100
AcDbEntity
  8
5
100
AcDbLine
 10
170.0
 20
297.0
 30
0.0
 11
170.0
 21
292.0
 31
0.0
  0
LINE
  5
8A
330
1F
100
AcDbEntity
  8
5
370
    25
100
AcDbLine
 10
220.0
 20
297.0
 30
0.0
 11
220.0
 21
287.0
 31
0.0
  0
LINE
  5
8B
330
1F
100
AcDbEntity
  8
9
 62
     7
100
AcDbLine
 10
420.0
 20
0.0
 30
0.0
 11
420.0
 21
148.5
 31
0.0
  0
LINE
  5
8C
330
1F
100
AcDbEntity
  8
9
 62
     7
100
AcDbLine
 10
420.0
 20
148.5
 30
0.0
 11
420.0
 21
297.0
 31
0.0
  0
LINE
  5
8D
330
1F
100
AcDbEntity
  8
9
 62
     7
100
AcDbLine
 10
420.0
 20
297.0
 30
0.0
 11
0.0
 21
297.0
 31
0.0
  0
LINE
  5
8E
330
1F
100
AcDbEntity
  8
5
100
AcDbLine
 10
270.0
 20
297.0
 30
0.0
 11
270.0
 21
292.0
 31
0.0
  0
LINE
  5
8F
330
1F
100
AcDbEntity
  8
5
100
AcDbLine
 10
320.0
 20
297.0
 30
0.0
 11
320.0
 21
292.0
 31
0.0
  0
LINE
  5
90
330
1F
100
AcDbEntity
  8
5
100
AcDbLine
 10
370.0
 20
297.0
 30
0.0
 11
370.0
 21
292.0
 31
0.0
  0
LINE
  5
91
330
1F
100
AcDbEntity
  8
5
100
AcDbLine
 10
420.0
 20
248.5
 30
0.0
 11
415.0
 21
248.5
 31
0.0
  0
LINE
  5
92
330
1F
100
AcDbEntity
  8
5
100
AcDbLine
 10
420.0
 20
198.5
 30
0.0
 11
415.0
 21
198.5
 31
0.0
  0
LINE
  5
93
330
1F
100
AcDbEntity
  8
5
370
    25
100
AcDbLine
 10
420.0
 20
148.5
 30
0.0
 11
410.0
 21
148.5
 31
0.0
  0
LINE
  5
94
330
1F
100
AcDbEntity
  8
9
 62
     7
100
AcDbLine
 10
0.0
 20
297.0
 30
0.0
 11
0.0
 21
0.0
 31
0.0
  0
LINE
  5
95
330
1F
100
AcDbEntity
  8
5
100
AcDbLine
 10
420.0
 20
98.5
 30
0.0
 11
415.0
 21
98.5
 31
0.0
  0
LINE
  5
96
330
1F
100
AcDbEntity
  8
5
100
AcDbLine
 10
420.0
 20
48.5
 30
0.0
 11
415.0
 21
48.5
 31
0.0
  0
LINE
  5
97
330
1F
100
AcDbEntity
  8
10
 62
     7
100
AcDbLine
 10
0.0
 20
91.0
 30
0.0
 11
25.0
 21
91.0
 31
0.0
  0
LINE
  5
98
330
1F
100
AcDbEntity
  8
10
 62
     7
100
AcDbLine
 10
0.0
 20
96.0
 30
0.0
 11
25.0
 21
96.0
 31
0.0
  0
LINE
  5
99
330
1F
100
AcDbEntity
  8
10
 62
     7
100
AcDbLine
 10
0.0
 20
78.0
 30
0.0
 11
25.0
 21
78.0
 31
0.0
  0
LINE
  5
9A
330
1F
100
AcDbEntity
  8
10
 62
     7
100
AcDbLine
 10
0.0
 20
83.0
 30
0.0
 11
25.0
 21
83.0
 31
0.0
  0
LINE
  5
9B
330
1F
100
AcDbEntity
  8
10
 62
     7
100
AcDbLine
 10
0.0
 20
65.0
 30
0.0
 11
25.0
 21
65.0
 31
0.0
  0
LINE
  5
9C
330
1F
100
AcDbEntity
  8
10
 62
     7
100
AcDbLine
 10
0.0
 20
70.0
 30
0.0
 11
25.0
 21
70.0
 31
0.0
  0
LINE
  5
9D
330
1F
100
AcDbEntity
  8
10
 62
     7
100
AcDbLine
 10
0.0
 20
52.0
 30
0.0
 11
25.0
 21
52.0
 31
0.0
  0
LINE
  5
9E
330
1F
100
AcDbEntity
  8
10
 62
     7
100
AcDbLine
 10
0.0
 20
57.0
 30
0.0
 11
25.0
 21
57.0
 31
0.0
  0
LINE
  5
9F
330
1F
100
AcDbEntity
  8
10
 62
     7
100
AcDbLine
 10
0.0
 20
39.0
 30
0.0
 11
25.0
 21
39.0
 31
0.0
  0
LINE
  5
A0
330
1F
100
AcDbEntity
  8
10
 62
     7
100
AcDbLine
 10
0.0
 20
44.0
 30
0.0
 11
25.0
 21
44.0
 31
0.0
  0
LINE
  5
A1
330
1F
100
AcDbEntity
  8
10
 62
     7
100
AcDbLine
 10
0.0
 20
26.0
 30
0.0
 11
25.0
 21
26.0
 31
0.0
  0
LINE
  5
A2
330
1F
100
AcDbEntity
  8
10
 62
     7
100
AcDbLine
 10
0.0
 20
31.0
 30
0.0
 11
25.0
 21
31.0
 31
0.0
  0
LINE
  5
A3
330
1F
100
AcDbEntity
  8
10
 62
     7
100
AcDbLine
 10
0.0
 20
18.0
 30
0.0
 11
25.0
 21
18.0
 31
0.0
  0
LINE
  5
A4
330
1F
100
AcDbEntity
  8
10
 62
     7
100
AcDbLine
 10
0.0
 20
13.0
 30
0.0
 11
25.0
 21
13.0
 31
0.0
  0
LINE
  5
A5
330
1F
100
AcDbEntity
  8
10
 62
     7
370
    25
100
AcDbLine
 10
365.0
 20
33.0
 30
0.0
 11
365.0
 21
5.0
 31
0.0
  0
LINE
  5
A6
330
1F
100
AcDbEntity
  8
10
 62
     7
370
    25
100
AcDbLine
 10
353.0
 20
43.0
 30
0.0
 11
353.0
 21
23.0
 31
0.0
  0
LINE
  5
A7
330
1F
100
AcDbEntity
  8
10
 62
     7
370
    25
100
AcDbLine
 10
340.9862173219
 20
43.0
 30
0.0
 11
340.9862173219
 21
23.0
 31
0.0
  0
LINE
  5
A8
330
1F
100
AcDbEntity
  8
SLD-0
370
    25
100
AcDbLine
 10
340.9862173219
 20
14.0
 30
0.0
 11
340.9862173219
 21
5.0
 31
0.0
  0
LINE
  5
A9
330
1F
100
AcDbEntity
  8
SLD-0
100
AcDbLine
 10
328.0
 20
33.0
 30
0.0
 11
328.0
 21
23.0
 31
0.0
  0
LINE
  5
AA
330
1F
100
AcDbEntity
  8
SLD-0
100
AcDbLine
 10
321.5
 20
33.0
 30
0.0
 11
321.5
 21
23.0
 31
0.0
  0
LINE
  5
AB
330
1F
100
AcDbEntity
  8
10
 62
     7
370
    25
100
AcDbLine
 10
315.0
 20
43.0
 30
0.0
 11
415.0
 21
43.0
 31
0.0
  0
LINE
  5
AC
330
1F
100
AcDbEntity
  8
10
 62
     7
370
    25
100
AcDbLine
 10
315.0
 20
23.0
 30
0.0
 11
415.0
 21
23.0
 31
0.0
  0
LINE
  5
AD
330
1F
100
AcDbEntity
  8
10
 62
     7
370
    25
100
AcDbLine
 10
315.0
 20
14.0
 30
0.0
 11
415.0
 21
14.0
 31
0.0
  0
LINE
  5
AE
330
1F
100
AcDbEntity
  8
10
 62
     7
370
    25
100
AcDbLine
 10
271.0
 20
61.0
 30
0.0
 11
271.0
 21
33.0
 31
0.0
  0
LINE
  5
AF
330
1F
100
AcDbEntity
  8
10
 62
     7
370
    25
100
AcDbLine
 10
255.0
 20
61.0
 30
0.0
 11
255.0
 21
33.0
 31
0.0
  0
LINE
  5
B0
330
1F
100
AcDbEntity
  8
10
 62
     7
370
    25
100
AcDbLine
 10
245.0
 20
61.0
 30
0.0
 11
245.0
 21
33.0
 31
0.0
  0
LINE
  5
B1
330
1F
100
AcDbEntity
  8
10
 62
     7
370
    25
100
AcDbLine
 10
365.0
 20
61.0
 30
0.0
 11
365.0
 21
33.0
 31
0.0
  0
LINE
  5
B2
330
1F
100
AcDbEntity
  8
10
 62
     7
370
    25
100
AcDbLine
 10
315.0
 20
61.0
 30
0.0
 11
315.0
 21
5.0
 31
0.0
  0
LINE
  5
B3
330
1F
100
AcDbEntity
  8
10
 62
     7
370
    25
100
AcDbLine
 10
299.0
 20
61.0
 30
0.0
 11
299.0
 21
5.0
 31
0.0
  0
LINE
  5
B4
330
1F
100
AcDbEntity
  8
10
 62
     7
370
    25
100
AcDbLine
 10
287.0
 20
61.0
 30
0.0
 11
287.0
 21
5.0
 31
0.0
  0
LINE
  5
B5
330
1F
100
AcDbEntity
  8
10
 62
     7
370
    25
100
AcDbLine
 10
275.0
 20
33.0
 30
0.0
 11
275.0
 21
5.0
 31
0.0
  0
LINE
  5
B6
330
1F
100
AcDbEntity
  8
10
 62
     7
370
    25
100
AcDbLine
 10
259.0
 20
33.0
 30
0.0
 11
259.0
 21
5.0
 31
0.0
  0
LINE
  5
B7
330
1F
100
AcDbEntity
  8
10
 62
     7
100
AcDbLine
 10
235.0
 20
54.0
 30
0.0
 11
315.0
 21
54.0
 31
0.0
  0
LINE
  5
B8
330
1F
100
AcDbEntity
  8
10
 62
     7
100
AcDbLine
 10
235.0
 20
47.0
 30
0.0
 11
315.0
 21
47.0
 31
0.0
  0
LINE
  5
B9
330
1F
100
AcDbEntity
  8
10
 62
     7
370
    25
100
AcDbLine
 10
235.0
 20
40.0
 30
0.0
 11
315.0
 21
40.0
 31
0.0
  0
LINE
  5
BA
330
1F
100
AcDbEntity
  8
10
 62
     7
370
    25
100
AcDbLine
 10
235.0
 20
33.0
 30
0.0
 11
365.0
 21
33.0
 31
0.0
  0
LINE
  5
BB
330
1F
100
AcDbEntity
  8
10
 62
     7
370
    25
100
AcDbLine
 10
235.0
 20
26.0
 30
0.0
 11
315.0
 21
26.0
 31
0.0
  0
LINE
  5
BC
330
1F
100
AcDbEntity
  8
10
 62
     7
370
    25
100
AcDbLine
 10
235.0
 20
19.0
 30
0.0
 11
315.0
 21
19.0
 31
0.0
  0
LINE
  5
BD
330
1F
100
AcDbEntity
  8
10
 62
     7
370
    25
100
AcDbLine
 10
235.0
 20
12.0
 30
0.0
 11
315.0
 21
12.0
 31
0.0
  0
LINE
  5
BE
330
1F
100
AcDbEntity
  8
5
 62
     7
370
    25
100
AcDbLine
 10
235.0
 20
61.0
 30
0.0
 11
415.0
 21
61.0
 31
0.0
  0
LINE
  5
BF
330
1F
100
AcDbEntity
  8
5
 62
     7
370
    25
100
AcDbLine
 10
235.0
 20
61.0
 30
0.0
 11
235.0
 21
5.0
 31
0.0
  0
LINE
  5
C0
330
1F
100
AcDbEntity
  8
10
 62
     7
100
AcDbLine
 10
0.0
 20
104.0
 30
0.0
 11
25.0
 21
104.0
 31
0.0
  0
LINE
  5
C1
330
1F
100
AcDbEntity
  8
10
 62
     7
100
AcDbLine
 10
0.0
 20
109.0
 30
0.0
 11
25.0
 21
109.0
 31
0.0
  0
LINE
  5
C2
330
1F
100
AcDbEntity
  8
10
 62
     7
370
    25
100
AcDbLine
 10
247.0
 20
33.0
 30
0.0
 11
247.0
 21
5.0
 31
0.0
  0
LINE
  5
C3
330
1F
100
AcDbEntity
  8
SLD-0
100
AcDbLine
 10
334.5
 20
33.0
 30
0.0
 11
334.5
 21
23.0
 31
0.0
  0
LINE
  5
C4
330
1F
100
AcDbEntity
  8
5
100
AcDbLine
 10
370.0
 20
0.0
 30
0.0
 11
370.0
 21
5.0
 31
0.0
  0
LINE
  5
C5
330
1F
100
AcDbEntity
  8
5
100
AcDbLine
 10
320.0
 20
0.0
 30
0.0
 11
320.0
 21
5.0
 31
0.0
  0
LINE
  5
C6
330
1F
100
AcDbEntity
  8
5
100
AcDbLine
 10
270.0
 20
0.0
 30
0.0
 11
270.0
 21
5.0
 31
0.0
  0
LINE
  5
C7
330
1F
100
AcDbEntity
  8
5
370
    25
100
AcDbLine
 10
220.0
 20
0.0
 30
0.0
 11
220.0
 21
10.0
 31
0.0
  0
LINE
  5
C8
330
1F
100
AcDbEntity
  8
5
100
AcDbLine
 10
170.0
 20
0.0
 30
0.0
 11
170.0
 21
5.0
 31
0.0
  0
LINE
  5
C9
330
1F
100
AcDbEntity
  8
5
100
AcDbLine
 10
120.0
 20
0.0
 30
0.0
 11
120.0
 21
5.0
 31
0.0
  0
LINE
  5
CA
330
1F
100
AcDbEntity
  8
5
100
AcDbLine
 10
70.0
 20
0.0
 30
0.0
 11
70.0
 21
5.0
 31
0.0
  0
LINE
  5
CB
330
1F
100
AcDbEntity
  8
5
370
    25
100
AcDbLine
 10
0.0
 20
148.5
 30
0.0
 11
30.0
 21
148.5
 31
0.0
  0
LINE
  5
CC
330
1F
100
AcDbEntity
  8
5
100
AcDbLine
 10
0.0
 20
198.5
 30
0.0
 11
25.0
 21
198.5
 31
0.0
  0
LINE
  5
CD
330
1F
100
AcDbEntity
  8
5
100
AcDbLine
 10
0.0
 20
248.5
 30
0.0
 11
25.0
 21
248.5
 31
0.0
  0
MTEXT
  5
CF
330
1F
100
AcDbEntity
  8
10
 62
     7
100
AcDbMText
 10
281.6293640059
 20
17.3301057164
 30
0.0
 40
3.5
 41
0.0
 71
     2
 72
     1
  1
审\M+18A6A
  7
SLDTEXTSTYLE0
 73
     1
 44
1.0
  0
MTEXT
  5
D0
330
1F
100
AcDbEntity
  8
10
 62
     7
100
AcDbMText
 10
241.5671643872
 20
24.5560869958
 30
0.0
 40
3.5
 41
0.0
 71
     2
 72
     1
  1
\M+18D5A\M+18A6A
  7
SLDTEXTSTYLE0
 73
     1
 44
1.0
  0
MTEXT
  5
D1
330
1F
100
AcDbEntity
  8
10
 62
     7
100
AcDbMText
 10
241.5671643872
 20
31.7343340331
 30
0.0
 40
3.5
 41
0.0
 71
     2
 72
     1
  1
设计
  7
SLDTEXTSTYLE0
 73
     1
 44
1.0
  0
MTEXT
  5
D2
330
1F
100
AcDbEntity
  8
10
 62
     7
100
AcDbMText
 10
240.1347790201
 20
38.7166393548
 30
0.0
 40
3.5
 41
0.0
 71
     2
 72
     1
  1
标记
  7
SLDTEXTSTYLE0
 73
     1
 44
1.0
  0
MTEXT
  5
D3
330
1F
100
AcDbEntity
  8
10
 62
     7
100
AcDbMText
 10
250.2983774987
 20
38.7166393548
 30
0.0
 40
3.5
 41
0.0
 71
     2
 72
     1
  1
处\M+19094
  7
SLDTEXTSTYLE0
 73
     1
 44
1.0
  0
MTEXT
  5
D4
330
1F
100
AcDbEntity
  8
10
 62
     7
100
AcDbMText
 10
263.0749246253
 20
38.7166393548
 30
0.0
 40
3.5
 41
0.0
 71
     2
 72
     1
  1
\M+195AA\M+18BE6
  7
SLDTEXTSTYLE0
 73
     1
 44
1.0
  0
MTEXT
  5
D5
330
1F
100
AcDbEntity
  8
10
 62
     7
100
AcDbMText
 10
279.5389225896
 20
38.7166393548
 30
0.0
 40
3.5
 41
0.0
 71
     2
 72
     1
  1
\M+18D58\M+189FC\M+195B6\M+18C8F\M+18D86
  7
SLDTEXTSTYLE0
 73
     1
 44
1.0
  0
MTEXT
  5
D6
330
1F
100
AcDbEntity
  8
10
 62
     7
100
AcDbMText
 10
293.5788061822
 20
38.7166393548
 30
0.0
 40
3.5
 41
0.0
 71
     2
 72
     1
  1
签\M+196BC
  7
SLDTEXTSTYLE0
 73
     1
 44
1.0
  0
MTEXT
  5
D8
330
1F
100
AcDbEntity
  8
10
 62
     7
100
AcDbMText
 10
307.7423507927
 20
38.7166393548
 30
0.0
 40
3.5
 41
0.0
 71
     2
 72
     1
  1
\M+1944E \M+18C8E \M+193FA
  7
SLDTEXTSTYLE1
 73
     1
 44
1.0
  0
MTEXT
  5
D9
330
1F
100
AcDbEntity
  8
10
 62
     7
100
AcDbMText
 10
281.6293640059
 20
24.5985273768
 30
0.0
 40
3.5
 41
0.0
 71
     2
 72
     1
  1
\M+18D48艺
  7
SLDTEXTSTYLE0
 73
     1
 44
1.0
  0
MTEXT
  5
DA
330
1F
100
AcDbEntity
  8
10
 62
     7
100
AcDbMText
 10
281.7387392406
 20
31.7343340331
 30
0.0
 40
3.5
 41
0.0
 71
     2
 72
     1
  1
标\M+18F79\M+189BB
  7
SLDTEXTSTYLE0
 73
     1
 44
1.0
  0
MTEXT
  5
DB
330
1F
100
AcDbEntity
  8
10
 62
     7
100
AcDbMText
 10
281.6293640059
 20
10.4410539552
 30
0.0
 40
3.5
 41
0.0
 71
     2
 72
     1
  1
\M+194E1\M+18F79
  7
SLDTEXTSTYLE0
 73
     1
 44
1.0
  0
MTEXT
  5
DD
330
1F
100
AcDbEntity
  8
10
 62
     7
100
AcDbMText
 10
328.2400904529
 20
39.9940594049
 30
0.0
 40
3.5
 41
0.0
 71
     2
 72
     1
  1
阶 \M+19269 标 记
  7
SLDTEXTSTYLE2
 73
     1
 44
1.0
  0
MTEXT
  5
DF
330
1F
100
AcDbEntity
  8
10
 62
     7
100
AcDbMText
 10
321.8708986531
 20
11.2009948458
 30
0.0
 40
3.5
 41
0.0
 71
     2
 72
     1
  1
\M+18BA4  张
  7
SLDTEXTSTYLE3
 73
     1
 44
1.0
  0
MTEXT
  5
E0
330
1F
100
AcDbEntity
  8
10
 62
     7
100
AcDbMText
 10
335.0401893574
 20
11.2009948458
 30
0.0
 40
3.5
 41
0.0
 71
     2
 72
     1
  1
\M+191E6  张
  7
SLDTEXTSTYLE3
 73
     1
 44
1.0
  0
MTEXT
  5
E1
330
1F
100
AcDbEntity
  8
10
 62
     7
100
AcDbMText
 10
347.2429719525
 20
39.9940594049
 30
0.0
 40
3.5
 41
0.0
 71
     2
 72
     1
  1
\M+18F64\M+197CA
  7
SLDTEXTSTYLE0
 73
     1
 44
1.0
  0
MTEXT
  5
E2
330
1F
100
AcDbEntity
  8
10
 62
     7
100
AcDbMText
 10
359.326023439
 20
39.9940594049
 30
0.0
 40
3.5
 41
0.0
 71
     2
 72
     1
  1
\M+194E4\M+197E1
  7
SLDTEXTSTYLE0
 73
     1
 44
1.0
  0
MTEXT
  5
E3
330
1F
100
AcDbEntity
  8
10
 62
     7
100
AcDbMText
 10
12.4005251198
 20
17.4367570643
 30
0.0
 40
3.5
 41
0.0
 71
     2
 72
     1
  1
\M+193FA\M+18AFA
  7
SLDTEXTSTYLE0
 73
     1
 44
1.0
  0
MTEXT
  5
E4
330
1F
100
AcDbEntity
  8
10
 62
     7
100
AcDbMText
 10
12.4005251198
 20
30.536901128
 30
0.0
 40
3.5
 41
0.0
 71
     2
 72
     1
  1
签\M+18E9A
  7
SLDTEXTSTYLE0
 73
     1
 44
1.0
  0
MTEXT
  5
E5
330
1F
100
AcDbEntity
  8
10
 62
     7
100
AcDbMText
 10
6.4999999478
 20
43.486337874
 30
0.0
 40
3.5
 41
0.0
 71
     1
 72
     1
  1
\M+192EA图总\M+18D86
  7
SLDTEXTSTYLE0
 73
     1
 44
1.0
  0
MTEXT
  5
E6
330
1F
100
AcDbEntity
  8
10
 62
     7
100
AcDbMText
 10
4.999999702
 20
56.4875161556
 30
0.0
 40
3.5
 41
0.0
 71
     1
 72
     1
  1
\M+18B8C\M+192EA图总\M+18D86
  7
SLDTEXTSTYLE0
 73
     1
 44
1.0
  0
MTEXT
  5
E7
330
1F
100
AcDbEntity
  8
10
 62
     7
100
AcDbMText
 10
12.7187500037
 20
69.5170572047
 30
0.0
 40
3.5
 41
0.0
 71
     2
 72
     1
  1
\M+19560\M+18D5A
  7
SLDTEXTSTYLE0
 73
     1
 44
1.0
  0
MTEXT
  5
E8
330
1F
100
AcDbEntity
  8
10
 62
     7
100
AcDbMText
 10
12.7187500037
 20
82.5525314805
 30
0.0
 40
3.5
 41
0.0
 71
     2
 72
     1
  1
\M+19560图
  7
SLDTEXTSTYLE0
 73
     1
 44
1.0
  0
MTEXT
  5
E9
330
1F
100
AcDbEntity
  8
10
 62
     7
100
AcDbMText
 10
2.4737490341
 20
95.4991762079
 30
0.0
 40
3.5
 41
0.0
 71
     1
 72
     1
  1
\M+18ED8(\M+192CA)\M+19770\M+18C8F\M+1936F记
  7
SLDTEXTSTYLE0
 73
     1
 44
1.0
  0
MTEXT
  5
EA
330
1F
100
AcDbEntity
  8
10
 62
     7
100
AcDbMText
 10
4.0231242776
 20
108.5947527842
 30
0.0
 40
3.5
 41
0.0
 71
     1
 72
     1
  1
\M+197EB \M+18C8F \M+191E3 \M+18D86
  7
SLDTEXTSTYLE2
 73
     1
 44
1.0
  0
MTEXT
  5
EB
330
1F
100
AcDbEntity
  8
10
 62
     7
100
AcDbMText
 10
345.2786528884
 20
11.2009950786
 30
0.0
 40
3.5
 41
0.0
 71
     2
 72
     1
  1
\M+194C5\M+1967B
  7
SLDTEXTSTYLE0
 73
     1
 44
1.0
  0
MTEXT
  5
EC
330
1F
100
AcDbEntity
  8
10
 62
     7
100
AcDbMText
 10
241.1667086001
 20
17.3301059492
 30
0.0
 40
3.5
 41
0.0
 71
     2
 72
     1
  1
\M+18EE5\M+18AC7设计
  7
SLDTEXTSTYLE0
 73
     1
 44
1.0
  0
MTEXT
  5
ED
330
1F
100
AcDbEntity
  8
SLD-0
100
AcDbMText
 10
366.5608758906
 20
11.2009950786
 30
0.0
 40
3.5
 41
0.0
 71
     1
 72
     1
  1
\M+191D6\M+191E3
  7
SLDTEXTSTYLE0
 73
     1
 44
1.0
  0
MTEXT
  5
EE
330
1F
100
AcDbEntity
  8
SLD-0
100
AcDbMText
 10
53.475978829
 20
285.1559309295
 30
0.0
 40
3.5
 41
0.0
 71
     2
 72
     1
  1
\M+18167图样\M+191E3\M+18D86\M+18168
  7
SLDTEXTSTYLE0
 11
-1.0
 21
-6.982962677686267E-15
 31
0.0
 73
     1
 44
1.0
  0
MTEXT
  5
F0
330
1F
100
AcDbEntity
  8
10
100
AcDbMText
 10
360.0843568798
 20
29.9049374378
 30
0.0
 40
3.5
 41
0.0
 71
     2
 72
     1
  1
2:1
  7
SLDTEXTSTYLE4
 73
     1
 44
1.0
  0
MTEXT
  5
F1
330
1F
100
AcDbEntity
  8
10
100
AcDbMText
 10
321.1423442751
 20
11.2009950786
 30
0.0
 40
3.5
 41
0.0
 71
     1
 72
     1
  1
1
  7
SLDTEXTSTYLE4
 73
     1
 44
1.0
  0
MTEXT
  5
F2
330
1F
100
AcDbEntity
  8
10
100
AcDbMText
 10
334.4794716171
 20
11.2009950786
 30
0.0
 40
3.5
 41
0.0
 71
     1
 72
     1
  1
1
  7
SLDTEXTSTYLE4
 73
     1
 44
1.0
  0
MTEXT
  5
F3
330
1F
100
AcDbEntity
  8
10
100
AcDbMText
 10
349.0926243322
 20
29.9049374378
 30
0.0
 40
3.5
 41
0.0
 71
     2
 72
     1
  1
0.004
  7
SLDTEXTSTYLE4
 73
     1
 44
1.0
  0
MTEXT
  5
F4
330
1F
100
AcDbEntity
  8
10
100
AcDbMText
 10
392.6876328292
 20
35.7909010283
 30
0.0
 40
3.5
 41
0.0
 71
     2
 72
     1
  1
\M+18167图样\M+196BC\M+18FCC\M+18168
  7
SLDTEXTSTYLE0
 73
     1
 44
1.0
  0
MTEXT
  5
F5
330
1F
100
AcDbEntity
  8
10
100
AcDbMText
 10
392.6900626498
 20
21.0496532158
 30
0.0
 40
3.5
 41
0.0
 71
     2
 72
     1
  1
\M+18167图样\M+191E3\M+18D86\M+18168
  7
SLDTEXTSTYLE0
 73
     1
 44
1.0
  0
MTEXT
  5
F6
330
1F
100
AcDbEntity
  8
10
100
AcDbMText
 10
346.1278655902
 20
54.4812063061
 30
0.0
 40
3.5
 41
0.0
 71
     2
 72
     1
  1
\M+18DDE质 <\M+196A2\M+18E77\M+192E8>
  7
SLDTEXTSTYLE0
 73
     1
 44
1.0
  0
MTEXT
  5
F7
330
1F
100
AcDbEntity
  8
10
100
AcDbMText
 10
35.5444444427
 20
4.4864278646
 30
0.0
 40
3.5
 41
0.0
 71
     2
 72
     1
  1
1
  7
SLDTEXTSTYLE4
 73
     1
 44
1.0
  0
MTEXT
  5
F8
330
1F
100
AcDbEntity
  8
10
100
AcDbMText
 10
95.5444444427
 20
4.4864278646
 30
0.0
 40
3.5
 41
0.0
 71
     2
 72
     1
  1
2
  7
SLDTEXTSTYLE4
 73
     1
 44
1.0
  0
MTEXT
  5
F9
330
1F
100
AcDbEntity
  8
10
100
AcDbMText
 10
345.54687502
 20
4.4864278646
 30
0.0
 40
3.5
 41
0.0
 71
     2
 72
     1
  1
7
  7
SLDTEXTSTYLE4
 73
     1
 44
1.0
  0
MTEXT
  5
FA
330
1F
100
AcDbEntity
  8
10
100
AcDbMText
 10
295.54687502
 20
4.4864278646
 30
0.0
 40
3.5
 41
0.0
 71
     2
 72
     1
  1
6
  7
SLDTEXTSTYLE4
 73
     1
 44
1.0
  0
MTEXT
  5
FB
330
1F
100
AcDbEntity
  8
10
100
AcDbMText
 10
245.5444444427
 20
4.4864278646
 30
0.0
 40
3.5
 41
0.0
 71
     2
 72
     1
  1
5
  7
SLDTEXTSTYLE4
 73
     1
 44
1.0
  0
MTEXT
  5
FC
330
1F
100
AcDbEntity
  8
10
100
AcDbMText
 10
195.5444444427
 20
4.4864278646
 30
0.0
 40
3.5
 41
0.0
 71
     2
 72
     1
  1
4
  7
SLDTEXTSTYLE4
 73
     1
 44
1.0
  0
MTEXT
  5
FD
330
1F
100
AcDbEntity
  8
10
100
AcDbMText
 10
145.5444444427
 20
4.4864278646
 30
0.0
 40
3.5
 41
0.0
 71
     2
 72
     1
  1
3
  7
SLDTEXTSTYLE4
 73
     1
 44
1.0
  0
MTEXT
  5
FE
330
1F
100
AcDbEntity
  8
10
100
AcDbMText
 10
395.54687502
 20
4.4864278646
 30
0.0
 40
3.5
 41
0.0
 71
     2
 72
     1
  1
8
  7
SLDTEXTSTYLE4
 73
     1
 44
1.0
  0
MTEXT
  5
FF
330
1F
100
AcDbEntity
  8
10
100
AcDbMText
 10
395.54687502
 20
296.5426708343
 30
0.0
 40
3.5
 41
0.0
 71
     2
 72
     1
  1
8
  7
SLDTEXTSTYLE4
 73
     1
 44
1.0
  0
MTEXT
  5
100
330
1F
100
AcDbEntity
  8
10
100
AcDbMText
 10
345.54687502
 20
296.5426708343
 30
0.0
 40
3.5
 41
0.0
 71
     2
 72
     1
  1
7
  7
SLDTEXTSTYLE4
 73
     1
 44
1.0
  0
MTEXT
  5
101
330
1F
100
AcDbEntity
  8
10
100
AcDbMText
 10
195.5444444427
 20
296.5426708343
 30
0.0
 40
3.5
 41
0.0
 71
     2
 72
     1
  1
4
  7
SLDTEXTSTYLE4
 73
     1
 44
1.0
  0
MTEXT
  5
102
330
1F
100
AcDbEntity
  8
10
100
AcDbMText
 10
245.5444444427
 20
296.5426708343
 30
0.0
 40
3.5
 41
0.0
 71
     2
 72
     1
  1
5
  7
SLDTEXTSTYLE4
 73
     1
 44
1.0
  0
MTEXT
  5
103
330
1F
100
AcDbEntity
  8
10
100
AcDbMText
 10
145.5444444427
 20
296.5426708343
 30
0.0
 40
3.5
 41
0.0
 71
     2
 72
     1
  1
3
  7
SLDTEXTSTYLE4
 73
     1
 44
1.0
  0
MTEXT
  5
104
330
1F
100
AcDbEntity
  8
10
100
AcDbMText
 10
295.54687502
 20
296.5426708343
 30
0.0
 40
3.5
 41
0.0
 71
     2
 72
     1
  1
6
  7
SLDTEXTSTYLE4
 73
     1
 44
1.0
  0
MTEXT
  5
105
330
1F
100
AcDbEntity
  8
10
100
AcDbMText
 10
95.5444444427
 20
296.5426708343
 30
0.0
 40
3.5
 41
0.0
 71
     2
 72
     1
  1
2
  7
SLDTEXTSTYLE4
 73
     1
 44
1.0
  0
MTEXT
  5
106
330
1F
100
AcDbEntity
  8
10
100
AcDbMText
 10
35.5444444427
 20
296.5426708343
 30
0.0
 40
3.5
 41
0.0
 71
     2
 72
     1
  1
1
  7
SLDTEXTSTYLE4
 73
     1
 44
1.0
  0
MTEXT
  5
107
330
1F
100
AcDbEntity
  8
10
100
AcDbMText
 10
418.224305544
 20
26.2364278646
 30
0.0
 40
3.5
 41
0.0
 71
     2
 72
     1
  1
F
  7
SLDTEXTSTYLE4
 73
     1
 44
1.0
  0
MTEXT
  5
108
330
1F
100
AcDbEntity
  8
10
100
AcDbMText
 10
418.3178819427
 20
75.4864278646
 30
0.0
 40
3.5
 41
0.0
 71
     2
 72
     1
  1
E
  7
SLDTEXTSTYLE4
 73
     1
 44
1.0
  0
MTEXT
  5
109
330
1F
100
AcDbEntity
  8
10
100
AcDbMText
 10
418.42968752
 20
125.5426708343
 30
0.0
 40
3.5
 41
0.0
 71
     2
 72
     1
  1
D
  7
SLDTEXTSTYLE4
 73
     1
 44
1.0
  0
MTEXT
  5
10A
330
1F
100
AcDbEntity
  8
10
100
AcDbMText
 10
418.4272569427
 20
175.4864278646
 30
0.0
 40
3.5
 41
0.0
 71
     2
 72
     1
  1
C
  7
SLDTEXTSTYLE4
 73
     1
 44
1.0
  0
MTEXT
  5
10B
330
1F
100
AcDbEntity
  8
10
100
AcDbMText
 10
418.32031252
 20
225.5426708343
 30
0.0
 40
3.5
 41
0.0
 71
     2
 72
     1
  1
B
  7
SLDTEXTSTYLE4
 73
     1
 44
1.0
  0
MTEXT
  5
10C
330
1F
100
AcDbEntity
  8
10
100
AcDbMText
 10
418.32031252
 20
274.7364278646
 30
0.0
 40
3.5
 41
0.0
 71
     2
 72
     1
  1
A
  7
SLDTEXTSTYLE4
 73
     1
 44
1.0
  0
MTEXT
  5
10D
330
1F
100
AcDbEntity
  8
10
100
AcDbMText
 10
13.32031252
 20
274.7364278646
 30
0.0
 40
3.5
 41
0.0
 71
     2
 72
     1
  1
A
  7
SLDTEXTSTYLE4
 73
     1
 44
1.0
  0
MTEXT
  5
10E
330
1F
100
AcDbEntity
  8
10
100
AcDbMText
 10
13.32031252
 20
225.5426708343
 30
0.0
 40
3.5
 41
0.0
 71
     2
 72
     1
  1
B
  7
SLDTEXTSTYLE4
 73
     1
 44
1.0
  0
MTEXT
  5
10F
330
1F
100
AcDbEntity
  8
10
100
AcDbMText
 10
13.4272569427
 20
175.4864278646
 30
0.0
 40
3.5
 41
0.0
 71
     2
 72
     1
  1
C
  7
SLDTEXTSTYLE4
 73
     1
 44
1.0
  0
MTEXT
  5
110
330
1F
100
AcDbEntity
  8
10
100
AcDbMText
 10
13.42968752
 20
125.5426708343
 30
0.0
 40
3.5
 41
0.0
 71
     2
 72
     1
  1
D
  7
SLDTEXTSTYLE4
 73
     1
 44
1.0
  0
LINE
  5
111
330
1F
100
AcDbEntity
  8
0
  6
Continuous
 62
     7
370
    25
100
AcDbLine
 10
88.8056017998
 20
177.460303712
 30
0.0
 11
88.8056017998
 21
253.460303712
 31
0.0
  0
LINE
  5
112
330
1F
100
AcDbEntity
  8
0
  6
Continuous
 62
     7
370
    25
100
AcDbLine
 10
88.8056017998
 20
253.460303712
 30
0.0
 11
91.8056017998
 21
253.460303712
 31
0.0
  0
LINE
  5
113
330
1F
100
AcDbEntity
  8
0
  6
Continuous
 62
     7
370
    25
100
AcDbLine
 10
91.8056017998
 20
253.460303712
 30
0.0
 11
91.8056017998
 21
177.460303712
 31
0.0
  0
LINE
  5
114
330
1F
100
AcDbEntity
  8
0
  6
Continuous
 62
     7
370
    25
100
AcDbLine
 10
91.8056017998
 20
177.460303712
 30
0.0
 11
88.8056017998
 21
177.460303712
 31
0.0
  0
ARC
  5
115
330
1F
100
AcDbEntity
  8
0
  6
Continuous
 62
     7
370
    25
100
AcDbCircle
 10
161.4946408384
 20
179.460303712
 30
0.0
 40
2.0
100
AcDbArc
 50
246.768543495
 51
270.0
  0
ARC
  5
116
330
1F
100
AcDbEntity
  8
0
  6
Continuous
 62
     7
370
    25
100
AcDbCircle
 10
103.1165627611
 20
179.460303712
 30
0.0
 40
2.000000000000005
100
AcDbArc
 50
270.0
 51
293.231456505
  0
LINE
  5
117
330
1F
100
AcDbEntity
  8
0
  6
Continuous
 62
     7
370
    25
100
AcDbLine
 10
103.1165627611
 20
177.460303712
 30
0.0
 11
91.8056017998
 21
177.460303712
 31
0.0
  0
ARC
  5
118
330
1F
100
AcDbEntity
  8
0
  6
Continuous
 62
     7
370
    25
100
AcDbCircle
 10
103.1165627611
 20
251.460303712
 30
0.0
 40
2.0
100
AcDbArc
 50
66.768543495
 51
90.0
  0
LINE
  5
119
330
1F
100
AcDbEntity
  8
0
  6
Continuous
 62
     7
370
    25
100
AcDbLine
 10
172.8056017998
 20
177.460303712
 30
0.0
 11
172.8056017998
 21
253.460303712
 31
0.0
  0
LINE
  5
11A
330
1F
100
AcDbEntity
  8
0
  6
Continuous
 62
     7
370
    25
100
AcDbLine
 10
161.4946408384
 20
253.460303712
 30
0.0
 11
172.8056017998
 21
253.460303712
 31
0.0
  0
ARC
  5
11B
330
1F
100
AcDbEntity
  8
0
  6
Continuous
 62
     7
370
    25
100
AcDbCircle
 10
161.4946408384
 20
251.460303712
 30
0.0
 40
2.0
100
AcDbArc
 50
90.0
 51
113.231456505
  0
LINE
  5
11C
330
1F
100
AcDbEntity
  8
0
  6
Continuous
 62
     7
370
    25
100
AcDbLine
 10
172.8056017998
 20
177.460303712
 30
0.0
 11
161.4946408384
 21
177.460303712
 31
0.0
  0
LINE
  5
11D
330
1F
100
AcDbEntity
  8
0
  6
Continuous
 62
     7
370
    25
100
AcDbLine
 10
91.8056017998
 20
253.460303712
 30
0.0
 11
103.1165627611
 21
253.460303712
 31
0.0
  0
ARC
  5
11E
330
1F
100
AcDbEntity
  8
0
  6
Continuous
 62
     7
370
    25
100
AcDbCircle
 10
132.3056017998
 20
319.460303712
 30
0.0
 40
72.0
100
AcDbArc
 50
246.768543495
 51
293.231456505
  0
ARC
  5
11F
330
1F
100
AcDbEntity
  8
0
  6
Continuous
 62
     7
370
    25
100
AcDbCircle
 10
132.3056017998
 20
111.460303712
 30
0.0
 40
72.0
100
AcDbArc
 50
66.768543495
 51
113.231456505
  0
LINE
  5
120
330
1F
100
AcDbEntity
  8
0
  6
Continuous
 62
     7
370
    25
100
AcDbLine
 10
175.8056017998
 20
253.460303712
 30
0.0
 11
175.8056017998
 21
177.460303712
 31
0.0
  0
LINE
  5
121
330
1F
100
AcDbEntity
  8
0
  6
Continuous
 62
     7
370
    25
100
AcDbLine
 10
172.8056017998
 20
253.460303712
 30
0.0
 11
175.8056017998
 21
253.460303712
 31
0.0
  0
LINE
  5
122
330
1F
100
AcDbEntity
  8
0
  6
Continuous
 62
     7
370
    25
100
AcDbLine
 10
175.8056017998
 20
177.460303712
 30
0.0
 11
172.8056017998
 21
177.460303712
 31
0.0
  0
DIMENSION
  5
123
330
1F
100
AcDbEntity
  8
10
100
AcDbDimension
  2
_D
 10
175.8056017998
 20
259.7597412823
 30
0.0
 11
143.8916085489
 21
259.7597412823
 31
0.0
 70
   160
  1
<>
 71
     2
 42
-1.0
  3
SLDDIMSTYLE0
100
AcDbAlignedDimension
 13
88.8056017998
 23
223.460303712
 33
0.0
 14
175.8056017998
 24
253.460303712
 34
0.0
100
AcDbRotatedDimension
  0
DIMENSION
  5
12E
330
1F
100
AcDbEntity
  8
10
100
AcDbDimension
  2
_D_1
 10
185.8056017998
 20
177.460303712
 30
0.0
 11
185.8056017998
 21
216.5842758815
 31
0.0
 70
   160
  1
<>
 71
     2
 42
-1.0
  3
SLDDIMSTYLE1
100
AcDbAlignedDimension
 13
175.8056017998
 23
253.460303712
 33
0.0
 14
175.8056017998
 24
177.460303712
 34
0.0
 50
90.0
100
AcDbRotatedDimension
  0
LINE
  5
139
330
1F
100
AcDbEntity
  8
0
  6
Continuous
 62
     7
370
    25
100
AcDbLine
 10
172.8056017998
 20
122.1225309336
 30
0.0
 11
175.8056017998
 21
122.1225309336
 31
0.0
  0
LINE
  5
13A
330
1F
100
AcDbEntity
  8
0
  6
Continuous
 62
     7
370
    25
100
AcDbLine
 10
175.8056017998
 20
120.1225309336
 30
0.0
 11
172.8056017998
 21
120.1225309336
 31
0.0
  0
LINE
  5
13B
330
1F
100
AcDbEntity
  8
0
  6
Continuous
 62
     7
370
    25
100
AcDbLine
 10
172.8056017998
 20
120.1225309336
 30
0.0
 11
172.8056017998
 21
122.1225309336
 31
0.0
  0
LINE
  5
13C
330
1F
100
AcDbEntity
  8
0
  6
Continuous
 62
     7
370
    25
100
AcDbLine
 10
175.8056017998
 20
122.1225309336
 30
0.0
 11
175.8056017998
 21
120.1225309336
 31
0.0
  0
LINE
  5
13D
330
1F
100
AcDbEntity
  8
0
  6
Continuous
 62
     7
370
    25
100
AcDbLine
 10
88.8056017998
 20
122.1225309336
 30
0.0
 11
91.8056017998
 21
122.1225309336
 31
0.0
  0
LINE
  5
13E
330
1F
100
AcDbEntity
  8
0
  6
Continuous
 62
     7
370
    25
100
AcDbLine
 10
91.8056017998
 20
120.1225309336
 30
0.0
 11
88.8056017998
 21
120.1225309336
 31
0.0
  0
LINE
  5
13F
330
1F
100
AcDbEntity
  8
0
  6
Continuous
 62
     7
370
    25
100
AcDbLine
 10
88.8056017998
 20
120.1225309336
 30
0.0
 11
88.8056017998
 21
122.1225309336
 31
0.0
  0
LINE
  5
140
330
1F
100
AcDbEntity
  8
0
  6
Continuous
 62
     7
370
    25
100
AcDbLine
 10
91.8056017998
 20
122.1225309336
 30
0.0
 11
91.8056017998
 21
120.1225309336
 31
0.0
  0
LINE
  5
141
330
1F
100
AcDbEntity
  8
0
  6
Continuous
 62
     7
370
    25
100
AcDbLine
 10
103.1165627611
 20
82.1225309336
 30
0.0
 11
91.8056017998
 21
82.1225309336
 31
0.0
  0
LINE
  5
142
330
1F
100
AcDbEntity
  8
0
  6
Continuous
 62
     7
370
    25
100
AcDbLine
 10
103.1165627611
 20
79.1225309336
 30
0.0
 11
103.1165627611
 21
82.1225309336
 31
0.0
  0
LINE
  5
143
330
1F
100
AcDbEntity
  8
0
  6
Continuous
 62
     7
370
    25
100
AcDbLine
 10
91.8056017998
 20
79.1225309336
 30
0.0
 11
103.1165627611
 21
79.1225309336
 31
0.0
  0
ARC
  5
144
330
1F
100
AcDbEntity
  8
0
  6
Continuous
 62
     7
370
    25
100
AcDbCircle
 10
91.8056017998
 20
82.1225309336
 30
0.0
 40
3.0
100
AcDbArc
 50
180.0
 51
270.0
  0
LINE
  5
145
330
1F
100
AcDbEntity
  8
0
  6
Continuous
 62
     7
370
    25
100
AcDbLine
 10
88.8056017998
 20
82.1225309336
 30
0.0
 11
88.8056017998
 21
120.1225309336
 31
0.0
  0
LINE
  5
146
330
1F
100
AcDbEntity
  8
0
  6
Continuous
 62
     7
370
    25
100
AcDbLine
 10
91.8056017998
 20
82.1225309336
 30
0.0
 11
91.8056017998
 21
120.1225309336
 31
0.0
  0
LINE
  5
147
330
1F
100
AcDbEntity
  8
0
  6
Continuous
 62
     7
370
    25
100
AcDbLine
 10
161.4946408384
 20
82.1225309336
 30
0.0
 11
161.4946408384
 21
79.1225309336
 31
0.0
  0
LINE
  5
148
330
1F
100
AcDbEntity
  8
0
  6
Continuous
 62
     7
370
    25
100
AcDbLine
 10
172.8056017998
 20
82.1225309336
 30
0.0
 11
161.4946408384
 21
82.1225309336
 31
0.0
  0
ARC
  5
149
330
1F
100
AcDbEntity
  8
0
  6
Continuous
 62
     7
370
    25
100
AcDbCircle
 10
172.8056017998
 20
82.1225309336
 30
0.0
 40
3.0
100
AcDbArc
 50
270.0
 51
0.0
  0
LINE
  5
14A
330
1F
100
AcDbEntity
  8
0
  6
Continuous
 62
     7
370
    25
100
AcDbLine
 10
161.4946408384
 20
79.1225309336
 30
0.0
 11
172.8056017998
 21
79.1225309336
 31
0.0
  0
LINE
  5
14B
330
1F
100
AcDbEntity
  8
0
  6
Continuous
 62
     7
370
    25
100
AcDbLine
 10
172.8056017998
 20
120.1225309336
 30
0.0
 11
172.8056017998
 21
82.1225309336
 31
0.0
  0
LINE
  5
14C
330
1F
100
AcDbEntity
  8
0
  6
Continuous
 62
     7
370
    25
100
AcDbLine
 10
175.8056017998
 20
82.1225309336
 30
0.0
 11
175.8056017998
 21
120.1225309336
 31
0.0
  0
LINE
  5
14D
330
1F
100
AcDbEntity
  8
0
  6
Continuous
 62
     7
370
    25
100
AcDbLine
 10
161.4946408384
 20
79.1225309336
 30
0.0
 11
160.7057478914
 21
79.1225309336
 31
0.0
  0
LINE
  5
14E
330
1F
100
AcDbEntity
  8
0
  6
Continuous
 62
     7
370
    25
100
AcDbLine
 10
160.7057478914
 20
79.1225309336
 30
0.0
 11
160.7057478914
 21
82.1225309336
 31
0.0
  0
LINE
  5
14F
330
1F
100
AcDbEntity
  8
0
  6
Continuous
 62
     7
370
    25
100
AcDbLine
 10
160.7057478914
 20
82.1225309336
 30
0.0
 11
161.4946408384
 21
82.1225309336
 31
0.0
  0
LINE
  5
150
330
1F
100
AcDbEntity
  8
0
  6
Continuous
 62
     7
370
    25
100
AcDbLine
 10
103.9054557081
 20
82.1225309336
 30
0.0
 11
103.9054557081
 21
79.1225309336
 31
0.0
  0
LINE
  5
151
330
1F
100
AcDbEntity
  8
0
  6
Continuous
 62
     7
370
    25
100
AcDbLine
 10
103.9054557081
 20
79.1225309336
 30
0.0
 11
103.1165627611
 21
79.1225309336
 31
0.0
  0
LINE
  5
152
330
1F
100
AcDbEntity
  8
0
  6
Continuous
 62
     7
370
    25
100
AcDbLine
 10
103.1165627611
 20
82.1225309336
 30
0.0
 11
103.9054557081
 21
82.1225309336
 31
0.0
  0
LINE
  5
153
330
1F
100
AcDbEntity
  8
0
  6
Continuous
 62
     7
370
    25
100
AcDbLine
 10
103.9054557081
 20
79.1225309336
 30
0.0
 11
160.7057478914
 21
79.1225309336
 31
0.0
  0
LINE
  5
154
330
1F
100
AcDbEntity
  8
0
  6
Continuous
 62
     7
370
    25
100
AcDbLine
 10
103.9054557081
 20
82.1225309336
 30
0.0
 11
160.7057478914
 21
82.1225309336
 31
0.0
  0
DIMENSION
  5
155
330
1F
100
AcDbEntity
  8
10
100
AcDbDimension
  2
_D_2
 10
183.7910605726
 20
79.1225309336
 30
0.0
 11
183.7910605726
 21
91.3353770048
 31
0.0
 70
   160
  1
<>
 71
     2
 42
-1.0
  3
SLDDIMSTYLE0
100
AcDbAlignedDimension
 13
175.8056017998
 23
122.1225309336
 33
0.0
 14
172.8056017998
 24
79.1225309336
 34
0.0
 50
90.0
100
AcDbRotatedDimension
  0
DIMENSION
  5
15F
330
1F
100
AcDbEntity
  8
10
100
AcDbDimension
  2
_D_3
 10
175.8056017998
 20
127.9827144591
 30
0.0
 11
178.9166739376
 21
127.9827144591
 31
0.0
 70
   160
  1
<>
 71
     2
 42
-1.0
  3
SLDDIMSTYLE2
100
AcDbAlignedDimension
 13
172.8056017998
 23
122.1225309336
 33
0.0
 14
175.8056017998
 24
104.1225309336
 34
0.0
100
AcDbRotatedDimension
  0
ARC
  5
16C
330
1F
100
AcDbEntity
  8
0
  6
Continuous
 62
     7
370
    25
100
AcDbCircle
 10
274.3281664792
 20
179.460303712
 30
0.0
 40
2.0
100
AcDbArc
 50
180.0
 51
270.0
  0
LINE
  5
16D
330
1F
100
AcDbEntity
  8
0
  6
Continuous
 62
     7
370
    25
100
AcDbLine
 10
312.3281664792
 20
253.460303712
 30
0.0
 11
274.3281664792
 21
253.460303712
 31
0.0
  0
LINE
  5
16E
330
1F
100
AcDbEntity
  8
0
  6
Continuous
 62
     7
370
    25
100
AcDbLine
 10
312.3281664792
 20
177.460303712
 30
0.0
 11
312.3281664792
 21
253.460303712
 31
0.0
  0
LINE
  5
16F
330
1F
100
AcDbEntity
  8
0
  6
Continuous
 62
     7
370
    25
100
AcDbLine
 10
312.3281664792
 20
177.460303712
 30
0.0
 11
274.3281664792
 21
177.460303712
 31
0.0
  0
CIRCLE
  5
170
330
1F
100
AcDbEntity
  8
0
  6
Continuous
 62
     7
370
    25
100
AcDbCircle
 10
292.3281664792
 20
215.460303712
 30
0.0
 40
8.0
  0
CIRCLE
  5
171
330
1F
100
AcDbEntity
  8
0
  6
Continuous
 62
     7
370
    25
100
AcDbCircle
 10
292.3281664792
 20
234.660303712
 30
0.0
 40
1.999999999999972
  0
CIRCLE
  5
172
330
1F
100
AcDbEntity
  8
0
  6
Continuous
 62
     7
370
    25
100
AcDbCircle
 10
277.3281664792
 20
234.460303712
 30
0.0
 40
1.999999999999972
  0
CIRCLE
  5
173
330
1F
100
AcDbEntity
  8
0
  6
Continuous
 62
     7
370
    25
100
AcDbCircle
 10
278.3281664792
 20
248.660303712
 30
0.0
 40
1.999999999999972
  0
CIRCLE
  5
174
330
1F
100
AcDbEntity
  8
0
  6
Continuous
 62
     7
370
    25
100
AcDbCircle
 10
306.3281664792
 20
248.660303712
 30
0.0
 40
1.999999999999972
  0
CIRCLE
  5
175
330
1F
100
AcDbEntity
  8
0
  6
Continuous
 62
     7
370
    25
100
AcDbCircle
 10
307.3281664792
 20
234.460303712
 30
0.0
 40
2.0
  0
CIRCLE
  5
176
330
1F
100
AcDbEntity
  8
0
  6
Continuous
 62
     7
370
    25
100
AcDbCircle
 10
307.3281664792
 20
196.460303712
 30
0.0
 40
1.999999999999972
  0
CIRCLE
  5
177
330
1F
100
AcDbEntity
  8
0
  6
Continuous
 62
     7
370
    25
100
AcDbCircle
 10
292.3281664792
 20
196.260303712
 30
0.0
 40
1.999999999999972
  0
CIRCLE
  5
178
330
1F
100
AcDbEntity
  8
0
  6
Continuous
 62
     7
370
    25
100
AcDbCircle
 10
277.3281664792
 20
196.460303712
 30
0.0
 40
1.999999999999972
  0
CIRCLE
  5
179
330
1F
100
AcDbEntity
  8
0
  6
Continuous
 62
     7
370
    25
100
AcDbCircle
 10
278.3281664792
 20
182.260303712
 30
0.0
 40
1.999999999999972
  0
CIRCLE
  5
17A
330
1F
100
AcDbEntity
  8
0
  6
Continuous
 62
     7
370
    25
100
AcDbCircle
 10
306.3281664792
 20
182.260303712
 30
0.0
 40
1.999999999999972
  0
ARC
  5
17B
330
1F
100
AcDbEntity
  8
0
  6
Continuous
 62
     7
370
    25
100
AcDbCircle
 10
274.3281664792
 20
251.460303712
 30
0.0
 40
2.0
100
AcDbArc
 50
90.0
 51
180.0
  0
LINE
  5
17C
330
1F
100
AcDbEntity
  8
0
  6
Continuous
 62
     7
370
    25
100
AcDbLine
 10
272.3281664792
 20
179.460303712
 30
0.0
 11
272.3281664792
 21
251.460303712
 31
0.0
  0
LINE
  5
17D
330
1F
100
AcDbEntity
  8
0
  6
Continuous
 62
     7
370
    25
100
AcDbLine
 10
315.3281664792
 20
253.460303712
 30
0.0
 11
315.3281664792
 21
177.460303712
 31
0.0
  0
LINE
  5
17E
330
1F
100
AcDbEntity
  8
0
  6
Continuous
 62
     7
370
    25
100
AcDbLine
 10
315.3281664792
 20
177.460303712
 30
0.0
 11
312.3281664792
 21
177.460303712
 31
0.0
  0
LINE
  5
17F
330
1F
100
AcDbEntity
  8
0
  6
Continuous
 62
     7
370
    25
100
AcDbLine
 10
312.3281664792
 20
253.460303712
 30
0.0
 11
315.3281664792
 21
253.460303712
 31
0.0
  0
DIMENSION
  5
180
330
1F
100
AcDbEntity
  8
10
100
AcDbDimension
  2
_D_4
 10
315.3281664792
 20
259.2079832253
 30
0.0
 11
299.1364424067
 21
259.2079832253
 31
0.0
 70
   160
  1
<>
 71
     2
 42
-1.0
  3
SLDDIMSTYLE0
100
AcDbAlignedDimension
 13
272.3281664792
 23
251.460303712
 33
0.0
 14
315.3281664792
 24
253.460303712
 34
0.0
100
AcDbRotatedDimension
  0
DIMENSION
  5
18A
330
1F
100
AcDbEntity
  8
10
100
AcDbDimension
  2
_D_5
 10
285.3153806786
 20
219.3100875131
 30
0.0
 11
307.3238680169
 21
207.2281828572
 31
0.0
 70
   163
  1
<>
 71
     1
 42
-1.0
  3
SLDDIMSTYLE3
100
AcDbDiametricDimension
 15
299.3409522798
 25
211.610519911
 35
0.0
 40
0.0
  0
DIMENSION
  5
197
330
1F
100
AcDbEntity
  8
10
100
AcDbDimension
  2
_D_6
 10
307.1041420064
 20
236.4477173669
 30
0.0
 11
308.735679678
 21
221.9737713171
 31
0.0
 70
   163
  1
<>
 71
     1
 42
-1.0
  3
SLDDIMSTYLE3
100
AcDbDiametricDimension
 15
307.5521909519
 25
232.4728900572
 35
0.0
 40
0.0
  0
INSERT
  5
1AB
330
1F
100
AcDbEntity
  8
10
100
AcDbBlockReference
  2
SW_CENTERMARKSYMBOL_0
 10
292.3281664792
 20
215.460303712
 30
0.0
  0
INSERT
  5
1B7
330
1F
100
AcDbEntity
  8
10
100
AcDbBlockReference
  2
SW_CENTERMARKSYMBOL_1
 10
292.3281664792
 20
234.660303712
 30
0.0
  0
INSERT
  5
1C3
330
1F
100
AcDbEntity
  8
10
100
AcDbBlockReference
  2
SW_CENTERMARKSYMBOL_2
 10
277.3281664792
 20
234.460303712
 30
0.0
  0
INSERT
  5
1CF
330
1F
100
AcDbEntity
  8
10
100
AcDbBlockReference
  2
SW_CENTERMARKSYMBOL_3
 10
278.3281664792
 20
248.660303712
 30
0.0
  0
INSERT
  5
1DB
330
1F
100
AcDbEntity
  8
10
100
AcDbBlockReference
  2
SW_CENTERMARKSYMBOL_4
 10
306.3281664792
 20
248.660303712
 30
0.0
  0
INSERT
  5
1E7
330
1F
100
AcDbEntity
  8
10
100
AcDbBlockReference
  2
SW_CENTERMARKSYMBOL_5
 10
307.3281664792
 20
234.460303712
 30
0.0
  0
INSERT
  5
1F3
330
1F
100
AcDbEntity
  8
10
100
AcDbBlockReference
  2
SW_CENTERMARKSYMBOL_6
 10
307.3281664792
 20
196.460303712
 30
0.0
  0
INSERT
  5
1FF
330
1F
100
AcDbEntity
  8
10
100
AcDbBlockReference
  2
SW_CENTERMARKSYMBOL_7
 10
292.3281664792
 20
196.260303712
 30
0.0
  0
INSERT
  5
20B
330
1F
100
AcDbEntity
  8
10
100
AcDbBlockReference
  2
SW_CENTERMARKSYMBOL_8
 10
277.3281664792
 20
196.460303712
 30
0.0
  0
INSERT
  5
217
330
1F
100
AcDbEntity
  8
10
100
AcDbBlockReference
  2
SW_CENTERMARKSYMBOL_9
 10
278.3281664792
 20
182.260303712
 30
0.0
  0
INSERT
  5
223
330
1F
100
AcDbEntity
  8
10
100
AcDbBlockReference
  2
SW_CENTERMARKSYMBOL_10
 10
306.3281664792
 20
182.260303712
 30
0.0
  0
ENDSEC
  0
SECTION
  2
OBJECTS
  0
DICTIONARY
  5
C
330
0
100
AcDbDictionary
281
     1
  3
ACAD_GROUP
350
D
  3
ACAD_LAYOUT
350
1A
  3
ACAD_MLINESTYLE
350
17
  3
ACAD_PLOTSETTINGS
350
19
  3
ACAD_PLOTSTYLENAME
350
E
  3
ACAD_SCALELIST
350
47
  0
DICTIONARY
  5
D
102
{ACAD_REACTORS
330
C
102
}
330
C
100
AcDbDictionary
281
     1
  0
DICTIONARY
  5
1A
102
{ACAD_REACTORS
330
C
102
}
330
C
100
AcDbDictionary
281
     1
  3
Layout1
350
1E
  3
Layout2
350
26
  3
Model
350
22
  0
DICTIONARY
  5
17
102
{ACAD_REACTORS
330
C
102
}
330
C
100
AcDbDictionary
281
     1
  3
Standard
350
18
  0
DICTIONARY
  5
19
102
{ACAD_REACTORS
330
C
102
}
330
C
100
AcDbDictionary
281
     1
  0
ACDBDICTIONARYWDFLT
  5
E
102
{ACAD_REACTORS
330
C
102
}
330
C
100
AcDbDictionary
281
     1
  3
Normal
350
F
100
AcDbDictionaryWithDefault
340
F
  0
DICTIONARY
  5
47
102
{ACAD_REACTORS
330
C
102
}
330
C
100
AcDbDictionary
281
     1
  3
A0
350
48
  3
A1
350
49
  3
A2
350
4A
  3
A3
350
4B
  3
A4
350
4C
  3
A5
350
4D
  3
A6
350
4E
  3
A7
350
4F
  3
A8
350
50
  3
A9
350
51
  3
B0
350
52
  3
B1
350
53
  3
B2
350
54
  3
B3
350
55
  3
B4
350
56
  3
B5
350
57
  3
B6
350
58
  3
B7
350
59
  3
B8
350
5A
  3
B9
350
5B
  3
C0
350
5C
  3
C1
350
5D
  3
C2
350
5E
  3
C3
350
5F
  3
C4
350
60
  3
C5
350
61
  3
C6
350
62
  3
C7
350
63
  3
C8
350
64
  3
C9
350
65
  3
D0
350
66
  3
D1
350
67
  3
D2
350
68
  0
LAYOUT
  5
1E
102
{ACAD_REACTORS
330
1A
102
}
330
1A
100
AcDbPlotSettings
  1

  2
none_device
  4

  6

 40
0.0
 41
0.0
 42
0.0
 43
0.0
 44
0.0
 45
0.0
 46
0.0
 47
0.0
 48
0.0
 49
0.0
140
0.0
141
0.0
142
1.0
143
1.0
 70
   688
 72
     1
 73
     0
 74
     5
  7

 75
    16
147
1.0
148
0.0
149
0.0
100
AcDbLayout
  1
Layout1
 70
     1
 71
     1
 10
0.0
 20
0.0
 11
420.0
 21
297.0
 12
0.0
 22
0.0
 32
0.0
 14
1.0000000000E+20
 24
1.0000000000E+20
 34
1.0000000000E+20
 15
-1.0000000000E+20
 25
-1.0000000000E+20
 35
-1.0000000000E+20
146
0.0
 13
0.0
 23
0.0
 33
0.0
 16
1.0
 26
0.0
 36
0.0
 17
0.0
 27
1.0
 37
0.0
 76
     0
330
1B
  0
LAYOUT
  5
26
102
{ACAD_REACTORS
330
1A
102
}
330
1A
100
AcDbPlotSettings
  1

  2
none_device
  4

  6

 40
0.0
 41
0.0
 42
0.0
 43
0.0
 44
0.0
 45
0.0
 46
0.0
 47
0.0
 48
0.0
 49
0.0
140
0.0
141
0.0
142
1.0
143
1.0
 70
   688
 72
     1
 73
     0
 74
     5
  7

 75
    16
147
1.0
148
0.0
149
0.0
100
AcDbLayout
  1
Layout2
 70
     1
 71
     2
 10
0.0
 20
0.0
 11
0.0
 21
0.0
 12
0.0
 22
0.0
 32
0.0
 14
0.0
 24
0.0
 34
0.0
 15
0.0
 25
0.0
 35
0.0
146
0.0
 13
0.0
 23
0.0
 33
0.0
 16
1.0
 26
0.0
 36
0.0
 17
0.0
 27
1.0
 37
0.0
 76
     0
330
23
  0
LAYOUT
  5
22
102
{ACAD_REACTORS
330
1A
102
}
330
1A
100
AcDbPlotSettings
  1

  2
none_device
  4
Letter_(8.50_x_11.00_Inches)
  6

 40
6.35
 41
6.35
 42
6.35000508
 43
6.35000508
 44
215.9
 45
279.4
 46
0.0
 47
0.0
 48
0.0
 49
0.0
140
0.0
141
0.0
142
1.0
143
1.0
 70
  1712
 72
     1
 73
     0
 74
     0
  7

 75
     0
147
1.0
148
0.0
149
0.0
100
AcDbLayout
  1
Model
 70
     1
 71
     0
 10
0.0
 20
0.0
 11
420.0
 21
297.0
 12
0.0
 22
0.0
 32
0.0
 14
0.0
 24
0.0
 34
0.0
 15
420.0
 25
297.0
 35
0.0
146
0.0
 13
0.0
 23
0.0
 33
0.0
 16
1.0
 26
0.0
 36
0.0
 17
0.0
 27
1.0
 37
0.0
 76
     0
330
1F
331
29
  0
MLINESTYLE
  5
18
102
{ACAD_REACTORS
330
17
102
}
330
17
100
AcDbMlineStyle
  2
Standard
 70
     0
  3

 62
   256
 51
90.0
 52
90.0
 71
     2
 49
0.5
 62
   256
  6
BYLAYER
 49
-0.5
 62
   256
  6
BYLAYER
  0
ACDBPLACEHOLDER
  5
F
102
{ACAD_REACTORS
330
E
102
}
330
E
  0
SCALE
  5
48
102
{ACAD_REACTORS
330
47
102
}
330
47
100
AcDbScale
 70
     0
300
1:1
140
1.0
141
1.0
290
     1
  0
SCALE
  5
49
102
{ACAD_REACTORS
330
47
102
}
330
47
100
AcDbScale
 70
     0
300
1:2
140
1.0
141
2.0
290
     0
  0
SCALE
  5
4A
102
{ACAD_REACTORS
330
47
102
}
330
47
100
AcDbScale
 70
     0
300
1:4
140
1.0
141
4.0
290
     0
  0
SCALE
  5
4B
102
{ACAD_REACTORS
330
47
102
}
330
47
100
AcDbScale
 70
     0
300
1:5
140
1.0
141
5.0
290
     0
  0
SCALE
  5
4C
102
{ACAD_REACTORS
330
47
102
}
330
47
100
AcDbScale
 70
     0
300
1:8
140
1.0
141
8.0
290
     0
  0
SCALE
  5
4D
102
{ACAD_REACTORS
330
47
102
}
330
47
100
AcDbScale
 70
     0
300
1:10
140
1.0
141
10.0
290
     0
  0
SCALE
  5
4E
102
{ACAD_REACTORS
330
47
102
}
330
47
100
AcDbScale
 70
     0
300
1:16
140
1.0
141
16.0
290
     0
  0
SCALE
  5
4F
102
{ACAD_REACTORS
330
47
102
}
330
47
100
AcDbScale
 70
     0
300
1:20
140
1.0
141
20.0
290
     0
  0
SCALE
  5
50
102
{ACAD_REACTORS
330
47
102
}
330
47
100
AcDbScale
 70
     0
300
1:30
140
1.0
141
30.0
290
     0
  0
SCALE
  5
51
102
{ACAD_REACTORS
330
47
102
}
330
47
100
AcDbScale
 70
     0
300
1:40
140
1.0
141
40.0
290
     0
  0
SCALE
  5
52
102
{ACAD_REACTORS
330
47
102
}
330
47
100
AcDbScale
 70
     0
300
1:50
140
1.0
141
50.0
290
     0
  0
SCALE
  5
53
102
{ACAD_REACTORS
330
47
102
}
330
47
100
AcDbScale
 70
     0
300
1:100
140
1.0
141
100.0
290
     0
  0
SCALE
  5
54
102
{ACAD_REACTORS
330
47
102
}
330
47
100
AcDbScale
 70
     0
300
2:1
140
2.0
141
1.0
290
     0
  0
SCALE
  5
55
102
{ACAD_REACTORS
330
47
102
}
330
47
100
AcDbScale
 70
     0
300
4:1
140
4.0
141
1.0
290
     0
  0
SCALE
  5
56
102
{ACAD_REACTORS
330
47
102
}
330
47
100
AcDbScale
 70
     0
300
8:1
140
8.0
141
1.0
290
     0
  0
SCALE
  5
57
102
{ACAD_REACTORS
330
47
102
}
330
47
100
AcDbScale
 70
     0
300
10:1
140
10.0
141
1.0
290
     0
  0
SCALE
  5
58
102
{ACAD_REACTORS
330
47
102
}
330
47
100
AcDbScale
 70
     0
300
100:1
140
100.0
141
1.0
290
     0
  0
SCALE
  5
59
102
{ACAD_REACTORS
330
47
102
}
330
47
100
AcDbScale
 70
     0
300
1/128" = 1'-0"
140
0.0078125
141
12.0
290
     0
  0
SCALE
  5
5A
102
{ACAD_REACTORS
330
47
102
}
330
47
100
AcDbScale
 70
     0
300
1/64" = 1'-0"
140
0.015625
141
12.0
290
     0
  0
SCALE
  5
5B
102
{ACAD_REACTORS
330
47
102
}
330
47
100
AcDbScale
 70
     0
300
1/32" = 1'-0"
140
0.03125
141
12.0
290
     0
  0
SCALE
  5
5C
102
{ACAD_REACTORS
330
47
102
}
330
47
100
AcDbScale
 70
     0
300
1/16" = 1'-0"
140
0.0625
141
12.0
290
     0
  0
SCALE
  5
5D
102
{ACAD_REACTORS
330
47
102
}
330
47
100
AcDbScale
 70
     0
300
3/32" = 1'-0"
140
0.09375
141
12.0
290
     0
  0
SCALE
  5
5E
102
{ACAD_REACTORS
330
47
102
}
330
47
100
AcDbScale
 70
     0
300
1/8" = 1'-0"
140
0.125
141
12.0
290
     0
  0
SCALE
  5
5F
102
{ACAD_REACTORS
330
47
102
}
330
47
100
AcDbScale
 70
     0
300
3/16" = 1'-0"
140
0.1875
141
12.0
290
     0
  0
SCALE
  5
60
102
{ACAD_REACTORS
330
47
102
}
330
47
100
AcDbScale
 70
     0
300
1/4" = 1'-0"
140
0.25
141
12.0
290
     0
  0
SCALE
  5
61
102
{ACAD_REACTORS
330
47
102
}
330
47
100
AcDbScale
 70
     0
300
3/8" = 1'-0"
140
0.375
141
12.0
290
     0
  0
SCALE
  5
62
102
{ACAD_REACTORS
330
47
102
}
330
47
100
AcDbScale
 70
     0
300
1/2" = 1'-0"
140
0.5
141
12.0
290
     0
  0
SCALE
  5
63
102
{ACAD_REACTORS
330
47
102
}
330
47
100
AcDbScale
 70
     0
300
3/4" = 1'-0"
140
0.75
141
12.0
290
     0
  0
SCALE
  5
64
102
{ACAD_REACTORS
330
47
102
}
330
47
100
AcDbScale
 70
     0
300
1" = 1'-0"
140
1.0
141
12.0
290
     0
  0
SCALE
  5
65
102
{ACAD_REACTORS
330
47
102
}
330
47
100
AcDbScale
 70
     0
300
1-1/2" = 1'-0"
140
1.5
141
12.0
290
     0
  0
SCALE
  5
66
102
{ACAD_REACTORS
330
47
102
}
330
47
100
AcDbScale
 70
     0
300
3" = 1'-0"
140
3.0
141
12.0
290
     0
  0
SCALE
  5
67
102
{ACAD_REACTORS
330
47
102
}
330
47
100
AcDbScale
 70
     0
300
6" = 1'-0"
140
6.0
141
12.0
290
     0
  0
SCALE
  5
68
102
{ACAD_REACTORS
330
47
102
}
330
47
100
AcDbScale
 70
     0
300
1'-0" = 1'-0"
140
12.0
141
12.0
290
     0
  0
ENDSEC
  0
EOF
